<?xml version="1.0" encoding="UTF-8" standalone="no"?>
<!DOCTYPE svg PUBLIC "-//W3C//DTD SVG 1.1//EN"
 "http://www.w3.org/Graphics/SVG/1.1/DTD/svg11.dtd">
<!-- Generated by graphviz version 12.1.2 (20240928.0832)
 -->
<!-- Title: LabLink Core Architecture Pages: 1 -->
<svg width="3514pt" height="2991pt"
 viewBox="0.00 0.00 843.45 717.75" xmlns="http://www.w3.org/2000/svg" xmlns:xlink="http://www.w3.org/1999/xlink">
<g id="graph0" class="graph" transform="scale(4.16667 4.16667) rotate(0) translate(36 681.75)">
<title>LabLink Core Architecture</title>
<polygon fill="white" stroke="none" points="-36,36 -36,-681.75 807.45,-681.75 807.45,36 -36,36"/>
<text text-anchor="middle" x="385.72" y="-611.35" font-family="Helvetica,sans-Serif" font-size="32.00" fill="#2d3436">LabLink Core Architecture</text>
<g id="clust1" class="cluster">
<title>cluster_LabLink Infrastructure</title>
<path fill="#e5f5fd" stroke="#aeb6be" d="M163.8,-114C163.8,-114 272.05,-114 272.05,-114 278.05,-114 284.05,-120 284.05,-126 284.05,-126 284.05,-278 284.05,-278 284.05,-284 278.05,-290 272.05,-290 272.05,-290 163.8,-290 163.8,-290 157.8,-290 151.8,-284 151.8,-278 151.8,-278 151.8,-126 151.8,-126 151.8,-120 157.8,-114 163.8,-114"/>
<text text-anchor="middle" x="217.92" y="-274.6" font-family="Sans-Serif" font-size="12.00" fill="#2d3436">LabLink Infrastructure</text>
</g>
<g id="clust2" class="cluster">
<title>cluster_Dynamic Compute</title>
<path fill="#e5f5fd" stroke="#aeb6be" d="M339.05,-57C339.05,-57 431.85,-57 431.85,-57 437.85,-57 443.85,-63 443.85,-69 443.85,-69 443.85,-581 443.85,-581 443.85,-587 437.85,-593 431.85,-593 431.85,-593 339.05,-593 339.05,-593 333.05,-593 327.05,-587 327.05,-581 327.05,-581 327.05,-69 327.05,-69 327.05,-63 333.05,-57 339.05,-57"/>
<text text-anchor="middle" x="383.05" y="-577.6" font-family="Sans-Serif" font-size="12.00" fill="#2d3436">Dynamic Compute</text>
</g>
<g id="clust3" class="cluster">
<title>cluster_Observability</title>
<path fill="#e5f5fd" stroke="#aeb6be" d="M498.85,-132C498.85,-132 751.45,-132 751.45,-132 757.45,-132 763.45,-138 763.45,-144 763.45,-144 763.45,-326 763.45,-326 763.45,-332 757.45,-338 751.45,-338 751.45,-338 498.85,-338 498.85,-338 492.85,-338 486.85,-332 486.85,-326 486.85,-326 486.85,-144 486.85,-144 486.85,-138 492.85,-132 498.85,-132"/>
<text text-anchor="middle" x="528.97" y="-322.6" font-family="Sans-Serif" font-size="12.00" fill="#2d3436">Observability</text>
</g>
<!-- 2561b47e9d814ae7b39b15f8b637beda -->
<g id="node1" class="node">
<title>2561b47e9d814ae7b39b15f8b637beda</title>
<image xlink:href="c:\repos\lablink-paper-figures\.venv\Lib\site-packages\resources/onprem/client\user.png" width="100.8px" height="100.8px" preserveAspectRatio="xMinYMin meet" x="-2.84217e-14" y="-240.4"/>
<text text-anchor="middle" x="50.4" y="-124.05" font-family="Helvetica,sans-Serif" font-size="14.00" fill="#2d3436">Admin</text>
</g>
<!-- e0ca6ceef3c641adb234e397c372a52a -->
<g id="node2" class="node">
<title>e0ca6ceef3c641adb234e397c372a52a</title>
<image xlink:href="c:\repos\lablink-paper-figures\.venv\Lib\site-packages\resources/aws/compute\ec2.png" width="100.8px" height="100.8px" preserveAspectRatio="xMinYMin meet" x="167.025" y="-240.4"/>
<text text-anchor="middle" x="217.42" y="-124.05" font-family="Helvetica,sans-Serif" font-size="14.00" fill="#2d3436">Allocator</text>
</g>
<!-- 2561b47e9d814ae7b39b15f8b637beda&#45;&gt;e0ca6ceef3c641adb234e397c372a52a -->
<g id="edge1" class="edge">
<title>2561b47e9d814ae7b39b15f8b637beda&#45;&gt;e0ca6ceef3c641adb234e397c372a52a</title>
<path fill="none" stroke="#7b8894" d="M100.51,-190C100.51,-190 155.55,-190 155.55,-190"/>
<polygon fill="#7b8894" stroke="#7b8894" points="155.55,-193.5 165.55,-190 155.55,-186.5 155.55,-193.5"/>
<text text-anchor="middle" x="130.3" y="-193.95" font-family="Sans-Serif" font-size="14.00" fill="#2d3436">API Requests</text>
</g>
<!-- 7e35c2d78db246b69fe3ca83e4861ea2 -->
<g id="node3" class="node">
<title>7e35c2d78db246b69fe3ca83e4861ea2</title>
<image xlink:href="c:\repos\lablink-paper-figures\.venv\Lib\site-packages\resources/aws/compute\ec2.png" width="100.8px" height="100.8px" preserveAspectRatio="xMinYMin meet" x="335.05" y="-543.4"/>
<text text-anchor="middle" x="385.45" y="-427.05" font-family="Helvetica,sans-Serif" font-size="14.00" fill="#2d3436">Client VM</text>
</g>
<!-- e0ca6ceef3c641adb234e397c372a52a&#45;&gt;7e35c2d78db246b69fe3ca83e4861ea2 -->
<g id="edge2" class="edge">
<title>e0ca6ceef3c641adb234e397c372a52a&#45;&gt;7e35c2d78db246b69fe3ca83e4861ea2</title>
<path fill="none" stroke="#fd7e14" d="M217.42,-258.38C217.42,-347.74 217.42,-493 217.42,-493 217.42,-493 323.98,-493 323.98,-493"/>
<polygon fill="#fd7e14" stroke="#fd7e14" points="323.98,-496.5 333.98,-493 323.98,-489.5 323.98,-496.5"/>
<text text-anchor="middle" x="305.55" y="-425.95" font-family="Sans-Serif" font-size="14.00" fill="#2d3436">Provisions</text>
</g>
<!-- 085a2bcee17c49d99acfe6fdfcc1c031 -->
<g id="node4" class="node">
<title>085a2bcee17c49d99acfe6fdfcc1c031</title>
<image xlink:href="c:\repos\lablink-paper-figures\.venv\Lib\site-packages\resources/aws/compute\ec2.png" width="100.8px" height="100.8px" preserveAspectRatio="xMinYMin meet" x="335.05" y="-363.4"/>
<text text-anchor="middle" x="385.45" y="-247.05" font-family="Helvetica,sans-Serif" font-size="14.00" fill="#2d3436">Client VM</text>
</g>
<!-- e0ca6ceef3c641adb234e397c372a52a&#45;&gt;085a2bcee17c49d99acfe6fdfcc1c031 -->
<g id="edge3" class="edge">
<title>e0ca6ceef3c641adb234e397c372a52a&#45;&gt;085a2bcee17c49d99acfe6fdfcc1c031</title>
<path fill="none" stroke="#fd7e14" d="M267.38,-251.5C267.38,-251.5 323.59,-251.5 323.59,-251.5"/>
<polygon fill="#fd7e14" stroke="#fd7e14" points="323.59,-255 333.59,-251.5 323.59,-248 323.59,-255"/>
<text text-anchor="middle" x="305.55" y="-278.95" font-family="Sans-Serif" font-size="14.00" fill="#2d3436">Provisions</text>
</g>
<!-- d8d485aeed0f43809da3bfb21274fad8 -->
<g id="node5" class="node">
<title>d8d485aeed0f43809da3bfb21274fad8</title>
<image xlink:href="c:\repos\lablink-paper-figures\.venv\Lib\site-packages\resources/aws/compute\ec2.png" width="100.8px" height="100.8px" preserveAspectRatio="xMinYMin meet" x="335.05" y="-183.4"/>
<text text-anchor="middle" x="385.45" y="-67.05" font-family="Helvetica,sans-Serif" font-size="14.00" fill="#2d3436">Client VM</text>
</g>
<!-- e0ca6ceef3c641adb234e397c372a52a&#45;&gt;d8d485aeed0f43809da3bfb21274fad8 -->
<g id="edge4" class="edge">
<title>e0ca6ceef3c641adb234e397c372a52a&#45;&gt;d8d485aeed0f43809da3bfb21274fad8</title>
<path fill="none" stroke="#fd7e14" d="M267.38,-161.5C267.38,-161.5 323.59,-161.5 323.59,-161.5"/>
<polygon fill="#fd7e14" stroke="#fd7e14" points="323.59,-165 333.59,-161.5 323.59,-158 323.59,-165"/>
<text text-anchor="middle" x="305.55" y="-164.95" font-family="Sans-Serif" font-size="14.00" fill="#2d3436">Provisions</text>
</g>
<!-- 63bf2ec8dd4a439e9f2d0f2c074d50bc -->
<g id="node6" class="node">
<title>63bf2ec8dd4a439e9f2d0f2c074d50bc</title>
<image xlink:href="c:\repos\lablink-paper-figures\.venv\Lib\site-packages\resources/aws/management\cloudwatch-logs.png" width="100.8px" height="100.8px" preserveAspectRatio="xMinYMin meet" x="494.85" y="-273.4"/>
<text text-anchor="middle" x="545.25" y="-158.4" font-family="Helvetica,sans-Serif" font-size="14.00" fill="#2d3436">Client VM Logs</text>
<text text-anchor="middle" x="545.25" y="-142.65" font-family="Helvetica,sans-Serif" font-size="14.00" fill="#2d3436">(AWS CloudWatch)</text>
</g>
<!-- 7e35c2d78db246b69fe3ca83e4861ea2&#45;&gt;63bf2ec8dd4a439e9f2d0f2c074d50bc -->
<g id="edge5" class="edge">
<title>7e35c2d78db246b69fe3ca83e4861ea2&#45;&gt;63bf2ec8dd4a439e9f2d0f2c074d50bc</title>
<path fill="none" stroke="#7b8894" d="M435.57,-493C482.44,-493 545.25,-493 545.25,-493 545.25,-493 545.25,-316.99 545.25,-316.99"/>
<polygon fill="#7b8894" stroke="#7b8894" points="548.75,-316.99 545.25,-306.99 541.75,-316.99 548.75,-316.99"/>
<text text-anchor="middle" x="465.35" y="-430.95" font-family="Sans-Serif" font-size="14.00" fill="#2d3436">Logs</text>
</g>
<!-- 085a2bcee17c49d99acfe6fdfcc1c031&#45;&gt;63bf2ec8dd4a439e9f2d0f2c074d50bc -->
<g id="edge6" class="edge">
<title>085a2bcee17c49d99acfe6fdfcc1c031&#45;&gt;63bf2ec8dd4a439e9f2d0f2c074d50bc</title>
<path fill="none" stroke="#7b8894" d="M435.57,-275.2C435.57,-275.2 483.52,-275.2 483.52,-275.2"/>
<polygon fill="#7b8894" stroke="#7b8894" points="483.52,-278.7 493.52,-275.2 483.52,-271.7 483.52,-278.7"/>
<text text-anchor="middle" x="465.35" y="-283.95" font-family="Sans-Serif" font-size="14.00" fill="#2d3436">Logs</text>
</g>
<!-- d8d485aeed0f43809da3bfb21274fad8&#45;&gt;63bf2ec8dd4a439e9f2d0f2c074d50bc -->
<g id="edge7" class="edge">
<title>d8d485aeed0f43809da3bfb21274fad8&#45;&gt;63bf2ec8dd4a439e9f2d0f2c074d50bc</title>
<path fill="none" stroke="#7b8894" d="M435.57,-170.8C435.57,-170.8 483.52,-170.8 483.52,-170.8"/>
<polygon fill="#7b8894" stroke="#7b8894" points="483.52,-174.3 493.52,-170.8 483.52,-167.3 483.52,-174.3"/>
<text text-anchor="middle" x="465.35" y="-169.95" font-family="Sans-Serif" font-size="14.00" fill="#2d3436">Logs</text>
</g>
<!-- 531e3af3eb8b4b409c3dacf0530d641d -->
<g id="node7" class="node">
<title>531e3af3eb8b4b409c3dacf0530d641d</title>
<image xlink:href="c:\repos\lablink-paper-figures\.venv\Lib\site-packages\resources/aws/compute\lambda.png" width="100.8px" height="100.8px" preserveAspectRatio="xMinYMin meet" x="654.65" y="-265.4"/>
<text text-anchor="middle" x="705.05" y="-149.05" font-family="Helvetica,sans-Serif" font-size="14.00" fill="#2d3436">Log Processor</text>
</g>
<!-- 63bf2ec8dd4a439e9f2d0f2c074d50bc&#45;&gt;531e3af3eb8b4b409c3dacf0530d641d -->
<g id="edge8" class="edge">
<title>63bf2ec8dd4a439e9f2d0f2c074d50bc&#45;&gt;531e3af3eb8b4b409c3dacf0530d641d</title>
<path fill="none" stroke="#7b8894" d="M595.37,-215C595.37,-215 643.32,-215 643.32,-215"/>
<polygon fill="#7b8894" stroke="#7b8894" points="643.32,-218.5 653.32,-215 643.32,-211.5 643.32,-218.5"/>
<text text-anchor="middle" x="625.15" y="-222.95" font-family="Sans-Serif" font-size="14.00" fill="#2d3436">Triggers</text>
</g>
<!-- 531e3af3eb8b4b409c3dacf0530d641d&#45;&gt;e0ca6ceef3c641adb234e397c372a52a -->
<g id="edge9" class="edge">
<title>531e3af3eb8b4b409c3dacf0530d641d&#45;&gt;e0ca6ceef3c641adb234e397c372a52a</title>
<path fill="none" stroke="#7b8894" d="M705.05,-146.99C705.05,-100.25 705.05,-46.6 705.05,-46.6 705.05,-46.6 217.42,-46.6 217.42,-46.6 217.42,-46.6 217.42,-110.15 217.42,-110.15"/>
<polygon fill="#7b8894" stroke="#7b8894" points="213.93,-110.15 217.43,-120.15 220.93,-110.15 213.93,-110.15"/>
<text text-anchor="middle" x="465.35" y="-3.95" font-family="Sans-Serif" font-size="14.00" fill="#2d3436">Callback</text>
</g>
</g>
</svg>
