<?xml version="1.0" encoding="UTF-8" standalone="no"?>
<!DOCTYPE svg PUBLIC "-//W3C//DTD SVG 1.1//EN"
 "http://www.w3.org/Graphics/SVG/1.1/DTD/svg11.dtd">
<!-- Generated by graphviz version 12.1.2 (20240928.0832)
 -->
<!-- Title: LabLink VM Provisioning (Total: ~105 seconds) Pages: 1 -->
<svg width="4848pt" height="2430pt"
 viewBox="0.00 0.00 1163.60 583.15" xmlns="http://www.w3.org/2000/svg" xmlns:xlink="http://www.w3.org/1999/xlink">
<g id="graph0" class="graph" transform="scale(4.16667 4.16667) rotate(0) translate(36 547.15)">
<title>LabLink VM Provisioning (Total: ~105 seconds)</title>
<polygon fill="white" stroke="none" points="-36,36 -36,-547.15 1127.6,-547.15 1127.6,36 -36,36"/>
<text text-anchor="middle" x="545.8" y="-476.75" font-family="Helvetica,sans-Serif" font-size="32.00" fill="#2d3436">LabLink VM Provisioning (Total: ~105 seconds)</text>
<g id="clust1" class="cluster">
<title>cluster_LabLink Infrastructure</title>
<path fill="#e5f5fd" stroke="#aeb6be" d="M819,-189C819,-189 1071.6,-189 1071.6,-189 1077.6,-189 1083.6,-195 1083.6,-201 1083.6,-201 1083.6,-353 1083.6,-353 1083.6,-359 1077.6,-365 1071.6,-365 1071.6,-365 819,-365 819,-365 813,-365 807,-359 807,-353 807,-353 807,-201 807,-201 807,-195 813,-189 819,-189"/>
<text text-anchor="middle" x="873.12" y="-349.6" font-family="Sans-Serif" font-size="12.00" fill="#2d3436">LabLink Infrastructure</text>
</g>
<g id="clust2" class="cluster">
<title>cluster_Provisioning</title>
<path fill="#e5f5fd" stroke="#aeb6be" d="M20,-167C20,-167 112.8,-167 112.8,-167 118.8,-167 124.8,-173 124.8,-179 124.8,-179 124.8,-361 124.8,-361 124.8,-367 118.8,-373 112.8,-373 112.8,-373 20,-373 20,-373 14,-373 8,-367 8,-361 8,-361 8,-179 8,-179 8,-173 14,-167 20,-167"/>
<text text-anchor="middle" x="48.62" y="-357.6" font-family="Sans-Serif" font-size="12.00" fill="#2d3436">Provisioning</text>
</g>
<g id="clust3" class="cluster">
<title>cluster_Dynamic Compute</title>
<path fill="#e5f5fd" stroke="#aeb6be" d="M179.8,-40C179.8,-40 272.6,-40 272.6,-40 278.6,-40 284.6,-46 284.6,-52 284.6,-52 284.6,-204 284.6,-204 284.6,-210 278.6,-216 272.6,-216 272.6,-216 179.8,-216 179.8,-216 173.8,-216 167.8,-210 167.8,-204 167.8,-204 167.8,-52 167.8,-52 167.8,-46 173.8,-40 179.8,-40"/>
<text text-anchor="middle" x="223.8" y="-200.6" font-family="Sans-Serif" font-size="12.00" fill="#2d3436">Dynamic Compute</text>
</g>
<g id="clust4" class="cluster">
<title>cluster_3&#45;Phase Startup Sequence</title>
<path fill="#e5f5fd" stroke="#aeb6be" d="M339.6,-8C339.6,-8 752,-8 752,-8 758,-8 764,-14 764,-20 764,-20 764,-202 764,-202 764,-208 758,-214 752,-214 752,-214 339.6,-214 339.6,-214 333.6,-214 327.6,-208 327.6,-202 327.6,-202 327.6,-20 327.6,-20 327.6,-14 333.6,-8 339.6,-8"/>
<text text-anchor="middle" x="404.6" y="-198.6" font-family="Sans-Serif" font-size="12.00" fill="#2d3436">3&#45;Phase Startup Sequence</text>
</g>
<!-- 76ea8ab9ed1542e092ab4cc83181e49a -->
<g id="node1" class="node">
<title>76ea8ab9ed1542e092ab4cc83181e49a</title>
<image xlink:href="c:\repos\lablink-paper-figures\.venv\Lib\site-packages\resources/onprem/client\user.png" width="100.8px" height="100.8px" preserveAspectRatio="xMinYMin meet" x="655.2" y="-448.4"/>
<text text-anchor="middle" x="705.6" y="-332.05" font-family="Helvetica,sans-Serif" font-size="14.00" fill="#2d3436">Admin</text>
</g>
<!-- 0638b8801d8d4482a755b16090a9dd78 -->
<g id="node2" class="node">
<title>0638b8801d8d4482a755b16090a9dd78</title>
<image xlink:href="c:\repos\lablink-paper-figures\.venv\Lib\site-packages\resources/aws/compute\ec2.png" width="100.8px" height="100.8px" preserveAspectRatio="xMinYMin meet" x="815" y="-315.4"/>
<text text-anchor="middle" x="865.4" y="-199.05" font-family="Helvetica,sans-Serif" font-size="14.00" fill="#2d3436">Allocator</text>
</g>
<!-- 76ea8ab9ed1542e092ab4cc83181e49a&#45;&gt;0638b8801d8d4482a755b16090a9dd78 -->
<g id="edge1" class="edge">
<title>76ea8ab9ed1542e092ab4cc83181e49a&#45;&gt;0638b8801d8d4482a755b16090a9dd78</title>
<path fill="none" stroke="#7b8894" d="M722.4,-329.63C722.4,-311.25 722.4,-296.35 722.4,-296.35 722.4,-296.35 803.87,-296.35 803.87,-296.35"/>
<polygon fill="#7b8894" stroke="#7b8894" points="803.87,-299.85 813.87,-296.35 803.87,-292.85 803.87,-299.85"/>
<text text-anchor="middle" x="785.5" y="-401.95" font-family="Sans-Serif" font-size="14.00" fill="#2d3436">1. POST /api/launch</text>
</g>
<!-- cfb323db23864bb1a09a8f3e792b61b1 -->
<g id="node3" class="node">
<title>cfb323db23864bb1a09a8f3e792b61b1</title>
<image xlink:href="c:\repos\lablink-paper-figures\.venv\Lib\site-packages\resources/aws/database\rds.png" width="100.8px" height="100.8px" preserveAspectRatio="xMinYMin meet" x="974.8" y="-315.4"/>
<text text-anchor="middle" x="1025.2" y="-199.05" font-family="Helvetica,sans-Serif" font-size="14.00" fill="#2d3436">PostgreSQL</text>
</g>
<!-- 0638b8801d8d4482a755b16090a9dd78&#45;&gt;cfb323db23864bb1a09a8f3e792b61b1 -->
<g id="edge8" class="edge">
<title>0638b8801d8d4482a755b16090a9dd78&#45;&gt;cfb323db23864bb1a09a8f3e792b61b1</title>
<path fill="none" stroke="#7b8894" d="M915.52,-265C915.52,-265 963.47,-265 963.47,-265"/>
<polygon fill="#7b8894" stroke="#7b8894" points="963.47,-268.5 973.47,-265 963.47,-261.5 963.47,-268.5"/>
<text text-anchor="middle" x="945.3" y="-268.95" font-family="Sans-Serif" font-size="14.00" fill="#2d3436">5. Store provisioning metrics</text>
</g>
<!-- a5bae6a8644f4838ab10c25507687c58 -->
<g id="node4" class="node">
<title>a5bae6a8644f4838ab10c25507687c58</title>
<text text-anchor="middle" x="66.4" y="-193.4" font-family="Helvetica,sans-Serif" font-size="14.00" fill="#2d3436">Terraform</text>
<text text-anchor="middle" x="66.4" y="-177.65" font-family="Helvetica,sans-Serif" font-size="14.00" fill="#2d3436">Subprocess</text>
</g>
<!-- 0638b8801d8d4482a755b16090a9dd78&#45;&gt;a5bae6a8644f4838ab10c25507687c58 -->
<g id="edge2" class="edge">
<title>0638b8801d8d4482a755b16090a9dd78&#45;&gt;a5bae6a8644f4838ab10c25507687c58</title>
<path fill="none" stroke="#fd7e14" d="M815.12,-263.1C815.12,-263.1 128.08,-263.1 128.08,-263.1"/>
<polygon fill="#fd7e14" stroke="#fd7e14" points="128.08,-259.6 118.08,-263.1 128.08,-266.6 128.08,-259.6"/>
<text text-anchor="middle" x="465.9" y="-268.95" font-family="Sans-Serif" font-size="14.00" fill="#2d3436">2. Execute terraform apply</text>
</g>
<!-- 7310ed18f6f14311b9b4b7f45a2a5509 -->
<g id="node5" class="node">
<title>7310ed18f6f14311b9b4b7f45a2a5509</title>
<image xlink:href="c:\repos\lablink-paper-figures\.venv\Lib\site-packages\resources/aws/compute\ec2.png" width="100.8px" height="100.8px" preserveAspectRatio="xMinYMin meet" x="175.8" y="-166.4"/>
<text text-anchor="middle" x="226.2" y="-50.05" font-family="Helvetica,sans-Serif" font-size="14.00" fill="#2d3436">Client VM</text>
</g>
<!-- a5bae6a8644f4838ab10c25507687c58&#45;&gt;7310ed18f6f14311b9b4b7f45a2a5509 -->
<g id="edge3" class="edge">
<title>a5bae6a8644f4838ab10c25507687c58&#45;&gt;7310ed18f6f14311b9b4b7f45a2a5509</title>
<path fill="none" stroke="#fd7e14" d="M116.52,-179.8C116.52,-179.8 164.47,-179.8 164.47,-179.8"/>
<polygon fill="#fd7e14" stroke="#fd7e14" points="164.47,-183.3 174.47,-179.8 164.47,-176.3 164.47,-183.3"/>
<text text-anchor="middle" x="146.3" y="-180.95" font-family="Sans-Serif" font-size="14.00" fill="#2d3436">3. Provisions</text>
</g>
<!-- cbc5aaed9e2648d88e4cbd133d1494a8 -->
<g id="node6" class="node">
<title>cbc5aaed9e2648d88e4cbd133d1494a8</title>
<image xlink:href="c:\repos\lablink-paper-figures\.venv\Lib\site-packages\resources/generic/blank\blank.png" width="100.8px" height="100.8px" preserveAspectRatio="xMinYMin meet" x="335.6" y="-149.4"/>
<text text-anchor="middle" x="386" y="-34.4" font-family="Helvetica,sans-Serif" font-size="14.00" fill="#2d3436">1. Cloud&#45;init</text>
<text text-anchor="middle" x="386" y="-18.65" font-family="Helvetica,sans-Serif" font-size="14.00" fill="#2d3436">Install agents (~30s)</text>
</g>
<!-- 7310ed18f6f14311b9b4b7f45a2a5509&#45;&gt;cbc5aaed9e2648d88e4cbd133d1494a8 -->
<g id="edge4" class="edge">
<title>7310ed18f6f14311b9b4b7f45a2a5509&#45;&gt;cbc5aaed9e2648d88e4cbd133d1494a8</title>
<path fill="none" stroke="#7b8894" d="M276.32,-114.7C276.32,-114.7 324.27,-114.7 324.27,-114.7"/>
<polygon fill="#7b8894" stroke="#7b8894" points="324.27,-118.2 334.27,-114.7 324.27,-111.2 324.27,-118.2"/>
<text text-anchor="middle" x="306.1" y="-111.95" font-family="Sans-Serif" font-size="14.00" fill="#2d3436">Starts</text>
</g>
<!-- 85961e83f3134d949cfb635211ff243f -->
<g id="node7" class="node">
<title>85961e83f3134d949cfb635211ff243f</title>
<image xlink:href="c:\repos\lablink-paper-figures\.venv\Lib\site-packages\resources/onprem/container\docker.png" width="100.8px" height="100.8px" preserveAspectRatio="xMinYMin meet" x="495.4" y="-149.4"/>
<text text-anchor="middle" x="545.8" y="-34.4" font-family="Helvetica,sans-Serif" font-size="14.00" fill="#2d3436">2. Docker</text>
<text text-anchor="middle" x="545.8" y="-18.65" font-family="Helvetica,sans-Serif" font-size="14.00" fill="#2d3436">Pull container (~60s)</text>
</g>
<!-- cbc5aaed9e2648d88e4cbd133d1494a8&#45;&gt;85961e83f3134d949cfb635211ff243f -->
<g id="edge5" class="edge">
<title>cbc5aaed9e2648d88e4cbd133d1494a8&#45;&gt;85961e83f3134d949cfb635211ff243f</title>
<path fill="none" stroke="#7b8894" d="M436.12,-99C436.12,-99 484.07,-99 484.07,-99"/>
<polygon fill="#7b8894" stroke="#7b8894" points="484.07,-102.5 494.07,-99 484.07,-95.5 484.07,-102.5"/>
</g>
<!-- fff9afa8bc1b49d7ad1e6fff6a83d0a8 -->
<g id="node8" class="node">
<title>fff9afa8bc1b49d7ad1e6fff6a83d0a8</title>
<image xlink:href="c:\repos\lablink-paper-figures\.venv\Lib\site-packages\resources/generic/blank\blank.png" width="100.8px" height="100.8px" preserveAspectRatio="xMinYMin meet" x="655.2" y="-149.4"/>
<text text-anchor="middle" x="705.6" y="-34.4" font-family="Helvetica,sans-Serif" font-size="14.00" fill="#2d3436">3. Application</text>
<text text-anchor="middle" x="705.6" y="-18.65" font-family="Helvetica,sans-Serif" font-size="14.00" fill="#2d3436">Software ready (~15s)</text>
</g>
<!-- 85961e83f3134d949cfb635211ff243f&#45;&gt;fff9afa8bc1b49d7ad1e6fff6a83d0a8 -->
<g id="edge6" class="edge">
<title>85961e83f3134d949cfb635211ff243f&#45;&gt;fff9afa8bc1b49d7ad1e6fff6a83d0a8</title>
<path fill="none" stroke="#7b8894" d="M595.92,-99C595.92,-99 643.87,-99 643.87,-99"/>
<polygon fill="#7b8894" stroke="#7b8894" points="643.87,-102.5 653.87,-99 643.87,-95.5 643.87,-102.5"/>
</g>
<!-- fff9afa8bc1b49d7ad1e6fff6a83d0a8&#45;&gt;0638b8801d8d4482a755b16090a9dd78 -->
<g id="edge7" class="edge">
<title>fff9afa8bc1b49d7ad1e6fff6a83d0a8&#45;&gt;0638b8801d8d4482a755b16090a9dd78</title>
<path fill="none" stroke="#28a745" stroke-dasharray="5,2" d="M688.8,-181.5C688.8,-207.63 688.8,-229.85 688.8,-229.85 688.8,-229.85 803.75,-229.85 803.75,-229.85"/>
<polygon fill="#28a745" stroke="#28a745" points="803.75,-233.35 813.75,-229.85 803.75,-226.35 803.75,-233.35"/>
<text text-anchor="middle" x="785.5" y="-189.2" font-family="Sans-Serif" font-size="14.00" fill="#2d3436">4. Status updates</text>
<text text-anchor="middle" x="785.5" y="-171.95" font-family="Sans-Serif" font-size="14.00" fill="#2d3436">(POST /api/vm&#45;metrics)</text>
</g>
</g>
</svg>
