<?xml version="1.0" encoding="UTF-8" standalone="no"?>
<!DOCTYPE svg PUBLIC "-//W3C//DTD SVG 1.1//EN"
 "http://www.w3.org/Graphics/SVG/1.1/DTD/svg11.dtd">
<!-- Generated by graphviz version 12.1.2 (20240928.0832)
 -->
<!-- Title: LabLink CRD Connection via PostgreSQL LISTEN/NOTIFY Pages: 1 -->
<svg width="5512pt" height="2350pt"
 viewBox="0.00 0.00 1322.85 564.00" xmlns="http://www.w3.org/2000/svg" xmlns:xlink="http://www.w3.org/1999/xlink">
<g id="graph0" class="graph" transform="scale(4.16667 4.16667) rotate(0) translate(36 528)">
<title>LabLink CRD Connection via PostgreSQL LISTEN/NOTIFY</title>
<polygon fill="white" stroke="none" points="-36,36 -36,-528 1286.85,-528 1286.85,36 -36,36"/>
<text text-anchor="middle" x="625.43" y="-457.6" font-family="Helvetica,sans-Serif" font-size="32.00" fill="#2d3436">LabLink CRD Connection via PostgreSQL LISTEN/NOTIFY</text>
<g id="clust1" class="cluster">
<title>cluster_LabLink Infrastructure</title>
<path fill="#e5f5fd" stroke="#aeb6be" d="M323.6,-201C323.6,-201 431.85,-201 431.85,-201 437.85,-201 443.85,-207 443.85,-213 443.85,-213 443.85,-365 443.85,-365 443.85,-371 437.85,-377 431.85,-377 431.85,-377 323.6,-377 323.6,-377 317.6,-377 311.6,-371 311.6,-365 311.6,-365 311.6,-213 311.6,-213 311.6,-207 317.6,-201 323.6,-201"/>
<text text-anchor="middle" x="377.73" y="-361.6" font-family="Sans-Serif" font-size="12.00" fill="#2d3436">LabLink Infrastructure</text>
</g>
<g id="clust2" class="cluster">
<title>cluster_PostgreSQL Database</title>
<path fill="#e5f5fd" stroke="#aeb6be" d="M498.85,-173C498.85,-173 911.25,-173 911.25,-173 917.25,-173 923.25,-179 923.25,-185 923.25,-185 923.25,-367 923.25,-367 923.25,-373 917.25,-379 911.25,-379 911.25,-379 498.85,-379 498.85,-379 492.85,-379 486.85,-373 486.85,-367 486.85,-367 486.85,-185 486.85,-185 486.85,-179 492.85,-173 498.85,-173"/>
<text text-anchor="middle" x="551.1" y="-363.6" font-family="Sans-Serif" font-size="12.00" fill="#2d3436">PostgreSQL Database</text>
</g>
<g id="clust3" class="cluster">
<title>cluster_Client VM (Admin&#45;provisioned)</title>
<path fill="#e5f5fd" stroke="#aeb6be" d="M978.25,-8C978.25,-8 1230.85,-8 1230.85,-8 1236.85,-8 1242.85,-14 1242.85,-20 1242.85,-20 1242.85,-381 1242.85,-381 1242.85,-387 1236.85,-393 1230.85,-393 1230.85,-393 978.25,-393 978.25,-393 972.25,-393 966.25,-387 966.25,-381 966.25,-381 966.25,-20 966.25,-20 966.25,-14 972.25,-8 978.25,-8"/>
<text text-anchor="middle" x="1055.62" y="-377.6" font-family="Sans-Serif" font-size="12.00" fill="#2d3436">Client VM (Admin&#45;provisioned)</text>
</g>
<!-- bc45b451d6d0466ba32b8af63e73a127 -->
<g id="node1" class="node">
<title>bc45b451d6d0466ba32b8af63e73a127</title>
<image xlink:href="c:\repos\lablink-paper-figures\.venv\Lib\site-packages\resources/onprem/client\user.png" width="100.8px" height="100.8px" preserveAspectRatio="xMinYMin meet" x="159.8" y="-341.4"/>
<text text-anchor="middle" x="210.2" y="-225.05" font-family="Helvetica,sans-Serif" font-size="14.00" fill="#2d3436">User</text>
</g>
<!-- 4267e93ead034469b49e4af1691295d2 -->
<g id="node2" class="node">
<title>4267e93ead034469b49e4af1691295d2</title>
<image xlink:href="c:\repos\lablink-paper-figures\.venv\Lib\site-packages\resources/aws/compute\ec2.png" width="100.8px" height="100.8px" preserveAspectRatio="xMinYMin meet" x="326.825" y="-327.4"/>
<text text-anchor="middle" x="377.23" y="-211.05" font-family="Helvetica,sans-Serif" font-size="14.00" fill="#2d3436">Allocator</text>
</g>
<!-- bc45b451d6d0466ba32b8af63e73a127&#45;&gt;4267e93ead034469b49e4af1691295d2 -->
<g id="edge3" class="edge">
<title>bc45b451d6d0466ba32b8af63e73a127&#45;&gt;4267e93ead034469b49e4af1691295d2</title>
<path fill="none" stroke="#7b8894" d="M260.31,-284C260.31,-284 315.35,-284 315.35,-284"/>
<polygon fill="#7b8894" stroke="#7b8894" points="315.35,-287.5 325.35,-284 315.35,-280.5 315.35,-287.5"/>
<text text-anchor="middle" x="290.1" y="-292.95" font-family="Sans-Serif" font-size="14.00" fill="#2d3436">1. Request VM</text>
</g>
<!-- bf5794cf6b4c4b0b801268e56377f18e -->
<g id="node3" class="node">
<title>bf5794cf6b4c4b0b801268e56377f18e</title>
<image xlink:href="c:\repos\lablink-paper-figures\.venv\Lib\site-packages\resources/aws/database\rds.png" width="100.8px" height="100.8px" preserveAspectRatio="xMinYMin meet" x="494.85" y="-322.4"/>
<text text-anchor="middle" x="545.25" y="-206.05" font-family="Helvetica,sans-Serif" font-size="14.00" fill="#2d3436">VM Table</text>
</g>
<!-- 4267e93ead034469b49e4af1691295d2&#45;&gt;bf5794cf6b4c4b0b801268e56377f18e -->
<g id="edge4" class="edge">
<title>4267e93ead034469b49e4af1691295d2&#45;&gt;bf5794cf6b4c4b0b801268e56377f18e</title>
<path fill="none" stroke="#7b8894" d="M427.18,-274.5C427.18,-274.5 483.39,-274.5 483.39,-274.5"/>
<polygon fill="#7b8894" stroke="#7b8894" points="483.39,-278 493.39,-274.5 483.39,-271 483.39,-278"/>
<text text-anchor="middle" x="465.35" y="-296.2" font-family="Sans-Serif" font-size="14.00" fill="#2d3436">2. Assign VM</text>
<text text-anchor="middle" x="465.35" y="-278.95" font-family="Sans-Serif" font-size="14.00" fill="#2d3436">UPDATE vm_table</text>
</g>
<!-- 6815fc58b1e5405ea58a5d02c537195a -->
<g id="node4" class="node">
<title>6815fc58b1e5405ea58a5d02c537195a</title>
<image xlink:href="c:\repos\lablink-paper-figures\.venv\Lib\site-packages\resources/aws/database\rds.png" width="100.8px" height="100.8px" preserveAspectRatio="xMinYMin meet" x="654.65" y="-314.4"/>
<text text-anchor="middle" x="705.05" y="-199.4" font-family="Helvetica,sans-Serif" font-size="14.00" fill="#2d3436">Database TRIGGER</text>
<text text-anchor="middle" x="705.05" y="-183.65" font-family="Helvetica,sans-Serif" font-size="14.00" fill="#2d3436">(on CrdCommand)</text>
</g>
<!-- bf5794cf6b4c4b0b801268e56377f18e&#45;&gt;6815fc58b1e5405ea58a5d02c537195a -->
<g id="edge1" class="edge">
<title>bf5794cf6b4c4b0b801268e56377f18e&#45;&gt;6815fc58b1e5405ea58a5d02c537195a</title>
<path fill="none" stroke="#7b8894" d="M595.37,-272C595.37,-272 643.32,-272 643.32,-272"/>
<polygon fill="#7b8894" stroke="#7b8894" points="643.32,-275.5 653.32,-272 643.32,-268.5 643.32,-275.5"/>
<text text-anchor="middle" x="625.15" y="-271.95" font-family="Sans-Serif" font-size="14.00" fill="#2d3436">UPDATE</text>
</g>
<!-- 8504ea5281e1466cb9a79ea14caf3fa5 -->
<g id="node5" class="node">
<title>8504ea5281e1466cb9a79ea14caf3fa5</title>
<image xlink:href="c:\repos\lablink-paper-figures\.venv\Lib\site-packages\resources/onprem/database\postgresql.png" width="100.8px" height="100.8px" preserveAspectRatio="xMinYMin meet" x="814.45" y="-322.4"/>
<text text-anchor="middle" x="864.85" y="-206.05" font-family="Helvetica,sans-Serif" font-size="14.00" fill="#2d3436">pg_notify()</text>
</g>
<!-- 6815fc58b1e5405ea58a5d02c537195a&#45;&gt;8504ea5281e1466cb9a79ea14caf3fa5 -->
<g id="edge2" class="edge">
<title>6815fc58b1e5405ea58a5d02c537195a&#45;&gt;8504ea5281e1466cb9a79ea14caf3fa5</title>
<path fill="none" stroke="#7b8894" d="M755.17,-272C755.17,-272 803.12,-272 803.12,-272"/>
<polygon fill="#7b8894" stroke="#7b8894" points="803.12,-275.5 813.12,-272 803.12,-268.5 803.12,-275.5"/>
<text text-anchor="middle" x="784.95" y="-271.95" font-family="Sans-Serif" font-size="14.00" fill="#2d3436">Fires</text>
</g>
<!-- 5721335b895d418c8c6c7a798bcfee92 -->
<g id="node7" class="node">
<title>5721335b895d418c8c6c7a798bcfee92</title>
<image xlink:href="c:\repos\lablink-paper-figures\.venv\Lib\site-packages\resources/programming/language\python.png" width="100.8px" height="100.8px" preserveAspectRatio="xMinYMin meet" x="974.25" y="-328.4"/>
<text text-anchor="middle" x="1024.65" y="-213.4" font-family="Helvetica,sans-Serif" font-size="14.00" fill="#2d3436">subscribe.py</text>
<text text-anchor="middle" x="1024.65" y="-197.65" font-family="Helvetica,sans-Serif" font-size="14.00" fill="#2d3436">(LISTEN)</text>
</g>
<!-- 8504ea5281e1466cb9a79ea14caf3fa5&#45;&gt;5721335b895d418c8c6c7a798bcfee92 -->
<g id="edge5" class="edge">
<title>8504ea5281e1466cb9a79ea14caf3fa5&#45;&gt;5721335b895d418c8c6c7a798bcfee92</title>
<path fill="none" stroke="#7b8894" stroke-dasharray="5,2" d="M914.97,-272C914.97,-272 962.92,-272 962.92,-272"/>
<polygon fill="#7b8894" stroke="#7b8894" points="962.92,-275.5 972.92,-272 962.92,-268.5 962.92,-275.5"/>
<text text-anchor="middle" x="944.75" y="-298.2" font-family="Sans-Serif" font-size="14.00" fill="#2d3436">3. Notification</text>
<text text-anchor="middle" x="944.75" y="-280.95" font-family="Sans-Serif" font-size="14.00" fill="#2d3436">(async, channel &#39;vm_updates&#39;)</text>
</g>
<!-- 2f625b25707649bba2f79013fae9db26 -->
<g id="node6" class="node">
<title>2f625b25707649bba2f79013fae9db26</title>
<image xlink:href="c:\repos\lablink-paper-figures\.venv\Lib\site-packages\resources/aws/compute\ec2.png" width="100.8px" height="100.8px" preserveAspectRatio="xMinYMin meet" x="974.25" y="-134.4"/>
<text text-anchor="middle" x="1024.65" y="-18.05" font-family="Helvetica,sans-Serif" font-size="14.00" fill="#2d3436">Client VM</text>
</g>
<!-- 7703f77bd0b84130b605f84b16ecad58 -->
<g id="node8" class="node">
<title>7703f77bd0b84130b605f84b16ecad58</title>
<image xlink:href="c:\repos\lablink-paper-figures\.venv\Lib\site-packages\resources/programming/language\python.png" width="100.8px" height="100.8px" preserveAspectRatio="xMinYMin meet" x="1134.05" y="-339.4"/>
<text text-anchor="middle" x="1184.45" y="-223.05" font-family="Helvetica,sans-Serif" font-size="14.00" fill="#2d3436">connect_crd.py</text>
</g>
<!-- 5721335b895d418c8c6c7a798bcfee92&#45;&gt;7703f77bd0b84130b605f84b16ecad58 -->
<g id="edge6" class="edge">
<title>5721335b895d418c8c6c7a798bcfee92&#45;&gt;7703f77bd0b84130b605f84b16ecad58</title>
<path fill="none" stroke="#7b8894" d="M1074.77,-289C1074.77,-289 1122.72,-289 1122.72,-289"/>
<polygon fill="#7b8894" stroke="#7b8894" points="1122.72,-292.5 1132.72,-289 1122.72,-285.5 1122.72,-292.5"/>
<text text-anchor="middle" x="1104.55" y="-285.95" font-family="Sans-Serif" font-size="14.00" fill="#2d3436">4. Execute CRD command</text>
</g>
<!-- d104552d00194ce6923e3f54aed3b526 -->
<g id="node9" class="node">
<title>d104552d00194ce6923e3f54aed3b526</title>
<image xlink:href="c:\repos\lablink-paper-figures\.venv\Lib\site-packages\resources/onprem/client\client.png" width="100.8px" height="100.8px" preserveAspectRatio="xMinYMin meet" x="8.52651e-14" y="-414.4"/>
<text text-anchor="middle" x="50.4" y="-299.4" font-family="Helvetica,sans-Serif" font-size="14.00" fill="#2d3436">Chrome Remote</text>
<text text-anchor="middle" x="50.4" y="-283.65" font-family="Helvetica,sans-Serif" font-size="14.00" fill="#2d3436">Desktop</text>
</g>
<!-- 7703f77bd0b84130b605f84b16ecad58&#45;&gt;d104552d00194ce6923e3f54aed3b526 -->
<g id="edge7" class="edge">
<title>7703f77bd0b84130b605f84b16ecad58&#45;&gt;d104552d00194ce6923e3f54aed3b526</title>
<path fill="none" stroke="#28a745" d="M1184.45,-357.11C1184.45,-381.83 1184.45,-403.8 1184.45,-403.8 1184.45,-403.8 112.11,-403.8 112.11,-403.8"/>
<polygon fill="#28a745" stroke="#28a745" points="112.11,-400.3 102.11,-403.8 112.11,-407.3 112.11,-400.3"/>
<text text-anchor="middle" x="625.15" y="-433.95" font-family="Sans-Serif" font-size="14.00" fill="#2d3436">5. Authenticates &amp; Connects</text>
</g>
<!-- d104552d00194ce6923e3f54aed3b526&#45;&gt;bc45b451d6d0466ba32b8af63e73a127 -->
<g id="edge8" class="edge">
<title>d104552d00194ce6923e3f54aed3b526&#45;&gt;bc45b451d6d0466ba32b8af63e73a127</title>
<path fill="none" stroke="#28a745" stroke-dasharray="5,2" d="M100.52,-320.3C100.52,-320.3 148.47,-320.3 148.47,-320.3"/>
<polygon fill="#28a745" stroke="#28a745" points="148.47,-323.8 158.47,-320.3 148.47,-316.8 148.47,-323.8"/>
<text text-anchor="middle" x="130.3" y="-353.95" font-family="Sans-Serif" font-size="14.00" fill="#2d3436">6. Chrome Remote Desktop Connection</text>
</g>
</g>
</svg>
