<?xml version="1.0" encoding="UTF-8" standalone="no"?>
<!DOCTYPE svg PUBLIC "-//W3C//DTD SVG 1.1//EN"
 "http://www.w3.org/Graphics/SVG/1.1/DTD/svg11.dtd">
<!-- Generated by graphviz version 12.1.2 (20240928.0832)
 -->
<!-- Title: LabLink Logging Pipeline Pages: 1 -->
<svg width="5448pt" height="1528pt"
 viewBox="0.00 0.00 1307.40 366.75" xmlns="http://www.w3.org/2000/svg" xmlns:xlink="http://www.w3.org/1999/xlink">
<g id="graph0" class="graph" transform="scale(4.16667 4.16667) rotate(0) translate(36 330.75)">
<title>LabLink Logging Pipeline</title>
<polygon fill="white" stroke="none" points="-36,36 -36,-330.75 1271.4,-330.75 1271.4,36 -36,36"/>
<text text-anchor="middle" x="617.7" y="-260.35" font-family="Helvetica,sans-Serif" font-size="32.00" fill="#2d3436">LabLink Logging Pipeline</text>
<g id="clust1" class="cluster">
<title>cluster_Dynamic Compute</title>
<path fill="#e5f5fd" stroke="#aeb6be" d="M20,-22C20,-22 272.6,-22 272.6,-22 278.6,-22 284.6,-28 284.6,-34 284.6,-34 284.6,-216 284.6,-216 284.6,-222 278.6,-228 272.6,-228 272.6,-228 20,-228 20,-228 14,-228 8,-222 8,-216 8,-216 8,-34 8,-34 8,-28 14,-22 20,-22"/>
<text text-anchor="middle" x="64" y="-212.6" font-family="Sans-Serif" font-size="12.00" fill="#2d3436">Dynamic Compute</text>
</g>
<g id="clust2" class="cluster">
<title>cluster_Observability</title>
<path fill="#e5f5fd" stroke="#aeb6be" d="M339.6,-8C339.6,-8 752,-8 752,-8 758,-8 764,-14 764,-20 764,-20 764,-230 764,-230 764,-236 758,-242 752,-242 752,-242 339.6,-242 339.6,-242 333.6,-242 327.6,-236 327.6,-230 327.6,-230 327.6,-20 327.6,-20 327.6,-14 333.6,-8 339.6,-8"/>
<text text-anchor="middle" x="369.73" y="-226.6" font-family="Sans-Serif" font-size="12.00" fill="#2d3436">Observability</text>
</g>
<g id="clust3" class="cluster">
<title>cluster_LabLink Infrastructure</title>
<path fill="#e5f5fd" stroke="#aeb6be" d="M819,-37C819,-37 1071.6,-37 1071.6,-37 1077.6,-37 1083.6,-43 1083.6,-49 1083.6,-49 1083.6,-201 1083.6,-201 1083.6,-207 1077.6,-213 1071.6,-213 1071.6,-213 819,-213 819,-213 813,-213 807,-207 807,-201 807,-201 807,-49 807,-49 807,-43 813,-37 819,-37"/>
<text text-anchor="middle" x="873.13" y="-197.6" font-family="Sans-Serif" font-size="12.00" fill="#2d3436">LabLink Infrastructure</text>
</g>
<!-- 236740dd32084b768521a2a205baa62c -->
<g id="node1" class="node">
<title>236740dd32084b768521a2a205baa62c</title>
<image xlink:href="c:\repos\lablink-paper-figures\.venv\Lib\site-packages\resources/onprem/client\user.png" width="100.8px" height="100.8px" preserveAspectRatio="xMinYMin meet" x="1134.6" y="-163.4"/>
<text text-anchor="middle" x="1185" y="-47.05" font-family="Helvetica,sans-Serif" font-size="14.00" fill="#2d3436">Admin</text>
</g>
<!-- 9f70e1079a7b44c5bb9d25f3c151cd51 -->
<g id="node2" class="node">
<title>9f70e1079a7b44c5bb9d25f3c151cd51</title>
<image xlink:href="c:\repos\lablink-paper-figures\.venv\Lib\site-packages\resources/aws/compute\ec2.png" width="100.8px" height="100.8px" preserveAspectRatio="xMinYMin meet" x="16" y="-163.4"/>
<text text-anchor="middle" x="66.4" y="-47.05" font-family="Helvetica,sans-Serif" font-size="14.00" fill="#2d3436">Client VM</text>
</g>
<!-- 01caa14aef0741198d4c91541bf44ad5 -->
<g id="node3" class="node">
<title>01caa14aef0741198d4c91541bf44ad5</title>
<image xlink:href="c:\repos\lablink-paper-figures\.venv\Lib\site-packages\resources/aws/management\cloudwatch.png" width="100.8px" height="100.8px" preserveAspectRatio="xMinYMin meet" x="175.8" y="-163.4"/>
<text text-anchor="middle" x="226.2" y="-48.4" font-family="Helvetica,sans-Serif" font-size="14.00" fill="#2d3436">CloudWatch</text>
<text text-anchor="middle" x="226.2" y="-32.65" font-family="Helvetica,sans-Serif" font-size="14.00" fill="#2d3436">Agent</text>
</g>
<!-- 9f70e1079a7b44c5bb9d25f3c151cd51&#45;&gt;01caa14aef0741198d4c91541bf44ad5 -->
<g id="edge1" class="edge">
<title>9f70e1079a7b44c5bb9d25f3c151cd51&#45;&gt;01caa14aef0741198d4c91541bf44ad5</title>
<path fill="none" stroke="#7b8894" d="M116.52,-113C116.52,-113 164.47,-113 164.47,-113"/>
<polygon fill="#7b8894" stroke="#7b8894" points="164.47,-116.5 174.47,-113 164.47,-109.5 164.47,-116.5"/>
<text text-anchor="middle" x="146.3" y="-116.95" font-family="Sans-Serif" font-size="14.00" fill="#2d3436">1. Application logs</text>
</g>
<!-- ce5d57286bb94d5799c85c0594da40da -->
<g id="node4" class="node">
<title>ce5d57286bb94d5799c85c0594da40da</title>
<image xlink:href="c:\repos\lablink-paper-figures\.venv\Lib\site-packages\resources/aws/management\cloudwatch-logs.png" width="100.8px" height="100.8px" preserveAspectRatio="xMinYMin meet" x="335.6" y="-163.4"/>
<text text-anchor="middle" x="386" y="-48.4" font-family="Helvetica,sans-Serif" font-size="14.00" fill="#2d3436">Client VM Logs</text>
<text text-anchor="middle" x="386" y="-32.65" font-family="Helvetica,sans-Serif" font-size="14.00" fill="#2d3436">(AWS CloudWatch)</text>
</g>
<!-- 01caa14aef0741198d4c91541bf44ad5&#45;&gt;ce5d57286bb94d5799c85c0594da40da -->
<g id="edge2" class="edge">
<title>01caa14aef0741198d4c91541bf44ad5&#45;&gt;ce5d57286bb94d5799c85c0594da40da</title>
<path fill="none" stroke="#7b8894" d="M276.32,-113C276.32,-113 324.27,-113 324.27,-113"/>
<polygon fill="#7b8894" stroke="#7b8894" points="324.27,-116.5 334.27,-113 324.27,-109.5 324.27,-116.5"/>
<text text-anchor="middle" x="306.1" y="-134.2" font-family="Sans-Serif" font-size="14.00" fill="#2d3436">2. PutLogEvents API</text>
<text text-anchor="middle" x="306.1" y="-116.95" font-family="Sans-Serif" font-size="14.00" fill="#2d3436">(gzip compressed)</text>
</g>
<!-- a989064efe544429b0e3abcffe27c783 -->
<g id="node5" class="node">
<title>a989064efe544429b0e3abcffe27c783</title>
<image xlink:href="c:\repos\lablink-paper-figures\.venv\Lib\site-packages\resources/aws/management\cloudwatch-event-event-based.png" width="100.8px" height="100.8px" preserveAspectRatio="xMinYMin meet" x="495.4" y="-163.4"/>
<text text-anchor="middle" x="545.8" y="-49.75" font-family="Helvetica,sans-Serif" font-size="14.00" fill="#2d3436">Subscription</text>
<text text-anchor="middle" x="545.8" y="-34" font-family="Helvetica,sans-Serif" font-size="14.00" fill="#2d3436">Filter</text>
<text text-anchor="middle" x="545.8" y="-18.25" font-family="Helvetica,sans-Serif" font-size="14.00" fill="#2d3436">(pattern: all events)</text>
</g>
<!-- ce5d57286bb94d5799c85c0594da40da&#45;&gt;a989064efe544429b0e3abcffe27c783 -->
<g id="edge3" class="edge">
<title>ce5d57286bb94d5799c85c0594da40da&#45;&gt;a989064efe544429b0e3abcffe27c783</title>
<path fill="none" stroke="#7b8894" stroke-dasharray="5,2" d="M436.12,-113C436.12,-113 484.07,-113 484.07,-113"/>
<polygon fill="#7b8894" stroke="#7b8894" points="484.07,-116.5 494.07,-113 484.07,-109.5 484.07,-116.5"/>
<text text-anchor="middle" x="465.9" y="-116.95" font-family="Sans-Serif" font-size="14.00" fill="#2d3436">3. Triggers (on pattern match)</text>
</g>
<!-- f412b2fdc99e423eaed5d7a3dc751a88 -->
<g id="node6" class="node">
<title>f412b2fdc99e423eaed5d7a3dc751a88</title>
<image xlink:href="c:\repos\lablink-paper-figures\.venv\Lib\site-packages\resources/aws/compute\lambda.png" width="100.8px" height="100.8px" preserveAspectRatio="xMinYMin meet" x="655.2" y="-163.4"/>
<text text-anchor="middle" x="705.6" y="-47.05" font-family="Helvetica,sans-Serif" font-size="14.00" fill="#2d3436">Log Processor</text>
</g>
<!-- a989064efe544429b0e3abcffe27c783&#45;&gt;f412b2fdc99e423eaed5d7a3dc751a88 -->
<g id="edge4" class="edge">
<title>a989064efe544429b0e3abcffe27c783&#45;&gt;f412b2fdc99e423eaed5d7a3dc751a88</title>
<path fill="none" stroke="#7b8894" d="M595.92,-113C595.92,-113 643.87,-113 643.87,-113"/>
<polygon fill="#7b8894" stroke="#7b8894" points="643.87,-116.5 653.87,-113 643.87,-109.5 643.87,-116.5"/>
<text text-anchor="middle" x="625.7" y="-116.95" font-family="Sans-Serif" font-size="14.00" fill="#2d3436">4. Invokes</text>
</g>
<!-- 77e77c8223f4415ea6e0a76b30ca8eab -->
<g id="node7" class="node">
<title>77e77c8223f4415ea6e0a76b30ca8eab</title>
<image xlink:href="c:\repos\lablink-paper-figures\.venv\Lib\site-packages\resources/aws/compute\ec2.png" width="100.8px" height="100.8px" preserveAspectRatio="xMinYMin meet" x="815" y="-163.4"/>
<text text-anchor="middle" x="865.4" y="-47.05" font-family="Helvetica,sans-Serif" font-size="14.00" fill="#2d3436">Allocator</text>
</g>
<!-- f412b2fdc99e423eaed5d7a3dc751a88&#45;&gt;77e77c8223f4415ea6e0a76b30ca8eab -->
<g id="edge5" class="edge">
<title>f412b2fdc99e423eaed5d7a3dc751a88&#45;&gt;77e77c8223f4415ea6e0a76b30ca8eab</title>
<path fill="none" stroke="#7b8894" d="M755.72,-113C755.72,-113 803.67,-113 803.67,-113"/>
<polygon fill="#7b8894" stroke="#7b8894" points="803.67,-116.5 813.67,-113 803.67,-109.5 803.67,-116.5"/>
<text text-anchor="middle" x="785.5" y="-134.2" font-family="Sans-Serif" font-size="14.00" fill="#2d3436">5. POST /api/vm&#45;logs</text>
<text text-anchor="middle" x="785.5" y="-116.95" font-family="Sans-Serif" font-size="14.00" fill="#2d3436">(parsed JSON)</text>
</g>
<!-- f6e4a7cc1af74ad583ff1cab45078694 -->
<g id="node8" class="node">
<title>f6e4a7cc1af74ad583ff1cab45078694</title>
<image xlink:href="c:\repos\lablink-paper-figures\.venv\Lib\site-packages\resources/aws/database\rds.png" width="100.8px" height="100.8px" preserveAspectRatio="xMinYMin meet" x="974.8" y="-163.4"/>
<text text-anchor="middle" x="1025.2" y="-47.05" font-family="Helvetica,sans-Serif" font-size="14.00" fill="#2d3436">PostgreSQL</text>
</g>
<!-- 77e77c8223f4415ea6e0a76b30ca8eab&#45;&gt;f6e4a7cc1af74ad583ff1cab45078694 -->
<g id="edge6" class="edge">
<title>77e77c8223f4415ea6e0a76b30ca8eab&#45;&gt;f6e4a7cc1af74ad583ff1cab45078694</title>
<path fill="none" stroke="#7b8894" d="M915.52,-113C915.52,-113 963.47,-113 963.47,-113"/>
<polygon fill="#7b8894" stroke="#7b8894" points="963.47,-116.5 973.47,-113 963.47,-109.5 963.47,-116.5"/>
<text text-anchor="middle" x="945.3" y="-116.95" font-family="Sans-Serif" font-size="14.00" fill="#2d3436">6. Store logs</text>
</g>
<!-- f6e4a7cc1af74ad583ff1cab45078694&#45;&gt;236740dd32084b768521a2a205baa62c -->
<g id="edge7" class="edge">
<title>f6e4a7cc1af74ad583ff1cab45078694&#45;&gt;236740dd32084b768521a2a205baa62c</title>
<path fill="none" stroke="#7b8894" stroke-dasharray="5,2" d="M1075.32,-113C1075.32,-113 1123.27,-113 1123.27,-113"/>
<polygon fill="#7b8894" stroke="#7b8894" points="1123.27,-116.5 1133.27,-113 1123.27,-109.5 1123.27,-116.5"/>
<text text-anchor="middle" x="1105.1" y="-116.95" font-family="Sans-Serif" font-size="14.00" fill="#2d3436">7. View logs (web UI)</text>
</g>
</g>
</svg>
