<?xml version="1.0" encoding="UTF-8" standalone="no"?>
<!DOCTYPE svg PUBLIC "-//W3C//DTD SVG 1.1//EN"
 "http://www.w3.org/Graphics/SVG/1.1/DTD/svg11.dtd">
<!-- Generated by graphviz version 12.1.2 (20240928.0832)
 -->
<!-- Title: LabLink Database Schema Pages: 1 -->
<svg width="4309pt" height="4002pt"
 viewBox="0.00 0.00 1034.20 960.55" xmlns="http://www.w3.org/2000/svg" xmlns:xlink="http://www.w3.org/1999/xlink">
<g id="graph0" class="graph" transform="scale(4.16667 4.16667) rotate(0) translate(36 924.55)">
<title>LabLink Database Schema</title>
<polygon fill="white" stroke="none" points="-36,36 -36,-924.55 998.2,-924.55 998.2,36 -36,36"/>
<text text-anchor="middle" x="481.1" y="-854.15" font-family="Helvetica,sans-Serif" font-size="32.00" fill="#2d3436">LabLink Database Schema</text>
<g id="clust1" class="cluster">
<title>cluster_LISTEN/NOTIFY</title>
<path fill="#e5f5fd" stroke="#aeb6be" d="M20,-454.4C20,-454.4 394.6,-454.4 394.6,-454.4 400.6,-454.4 406.6,-460.4 406.6,-466.4 406.6,-466.4 406.6,-618.4 406.6,-618.4 406.6,-624.4 400.6,-630.4 394.6,-630.4 394.6,-630.4 20,-630.4 20,-630.4 14,-630.4 8,-624.4 8,-618.4 8,-618.4 8,-466.4 8,-466.4 8,-460.4 14,-454.4 20,-454.4"/>
<text text-anchor="middle" x="58" y="-615" font-family="Sans-Serif" font-size="12.00" fill="#2d3436">LISTEN/NOTIFY</text>
</g>
<!-- 1ef68ec3b2b44b94b81abc2dc5f9c16b -->
<g id="node1" class="node">
<title>1ef68ec3b2b44b94b81abc2dc5f9c16b</title>
<image xlink:href="c:\repos\lablink-paper-figures\.venv\Lib\site-packages\resources/aws/compute\ec2.png" width="100.8px" height="100.8px" preserveAspectRatio="xMinYMin meet" x="579.6" y="-825.8"/>
<text text-anchor="middle" x="630" y="-709.45" font-family="Helvetica,sans-Serif" font-size="14.00" fill="#2d3436">Allocator</text>
</g>
<!-- c4d24947896142feb0370d39c702f992 -->
<g id="node4" class="node">
<title>c4d24947896142feb0370d39c702f992</title>
<image xlink:href="c:\repos\lablink-paper-figures\.venv\Lib\site-packages\resources/aws/database\rds.png" width="100.8px" height="100.8px" preserveAspectRatio="xMinYMin meet" x="861.4" y="-464.8"/>
<text text-anchor="middle" x="911.8" y="-442.95" font-family="Helvetica,sans-Serif" font-size="14.00" fill="#2d3436">VM Table (19 cols)</text>
<text text-anchor="middle" x="911.8" y="-427.2" font-family="Helvetica,sans-Serif" font-size="14.00" fill="#2d3436">Assignment: HostName(PK),</text>
<text text-anchor="middle" x="911.8" y="-411.45" font-family="Helvetica,sans-Serif" font-size="14.00" fill="#2d3436"> &#160;UserEmail, CrdCommand, Pin</text>
<text text-anchor="middle" x="911.8" y="-395.7" font-family="Helvetica,sans-Serif" font-size="14.00" fill="#2d3436">Monitoring: Status, Healthy,</text>
<text text-anchor="middle" x="911.8" y="-379.95" font-family="Helvetica,sans-Serif" font-size="14.00" fill="#2d3436"> &#160;InUse, Logs</text>
<text text-anchor="middle" x="911.8" y="-364.2" font-family="Helvetica,sans-Serif" font-size="14.00" fill="#2d3436">Metrics: 10 timing columns</text>
<text text-anchor="middle" x="911.8" y="-348.45" font-family="Helvetica,sans-Serif" font-size="14.00" fill="#2d3436">Metadata: CreatedAt</text>
</g>
<!-- 1ef68ec3b2b44b94b81abc2dc5f9c16b&#45;&gt;c4d24947896142feb0370d39c702f992 -->
<g id="edge1" class="edge">
<title>1ef68ec3b2b44b94b81abc2dc5f9c16b&#45;&gt;c4d24947896142feb0370d39c702f992</title>
<path fill="none" stroke="#007bff" d="M680.38,-775.4C761.44,-775.4 911.8,-775.4 911.8,-775.4 911.8,-775.4 923.31,-775.4 923.31,-775.4"/>
<polygon fill="#007bff" stroke="#007bff" points="915.75,-494.09 911.86,-484.24 908.76,-494.37 915.75,-494.09"/>
<text text-anchor="middle" x="770.9" y="-779.35" font-family="Sans-Serif" font-size="14.00" fill="#2d3436">INSERT/UPDATE</text>
</g>
<!-- a98cd4c38e894f7cbec53530d89143b1 -->
<g id="node2" class="node">
<title>a98cd4c38e894f7cbec53530d89143b1</title>
<image xlink:href="c:\repos\lablink-paper-figures\.venv\Lib\site-packages\resources/aws/compute\ec2.png" width="100.8px" height="100.8px" preserveAspectRatio="xMinYMin meet" x="579.6" y="-580.8"/>
<text text-anchor="middle" x="630" y="-464.45" font-family="Helvetica,sans-Serif" font-size="14.00" fill="#2d3436">Client VMs</text>
</g>
<!-- a98cd4c38e894f7cbec53530d89143b1&#45;&gt;c4d24947896142feb0370d39c702f992 -->
<g id="edge2" class="edge">
<title>a98cd4c38e894f7cbec53530d89143b1&#45;&gt;c4d24947896142feb0370d39c702f992</title>
<path fill="none" stroke="#28a745" stroke-dasharray="5,2" d="M680.38,-472.4C680.38,-472.4 850.34,-472.4 850.34,-472.4"/>
<polygon fill="#28a745" stroke="#28a745" points="850.34,-475.9 860.34,-472.4 850.34,-468.9 850.34,-475.9"/>
<text text-anchor="middle" x="770.9" y="-503.35" font-family="Sans-Serif" font-size="14.00" fill="#2d3436">Metrics</text>
</g>
<!-- fe8409cdbb474bfa9151fab676d4370a -->
<g id="node3" class="node">
<title>fe8409cdbb474bfa9151fab676d4370a</title>
<image xlink:href="c:\repos\lablink-paper-figures\.venv\Lib\site-packages\resources/aws/compute\lambda.png" width="100.8px" height="100.8px" preserveAspectRatio="xMinYMin meet" x="579.6" y="-118.8"/>
<text text-anchor="middle" x="630" y="-2.45" font-family="Helvetica,sans-Serif" font-size="14.00" fill="#2d3436">Lambda</text>
</g>
<!-- fe8409cdbb474bfa9151fab676d4370a&#45;&gt;c4d24947896142feb0370d39c702f992 -->
<g id="edge3" class="edge">
<title>fe8409cdbb474bfa9151fab676d4370a&#45;&gt;c4d24947896142feb0370d39c702f992</title>
<path fill="none" stroke="#6c757d" d="M630,-136.64C630,-229.61 630,-384.67 630,-384.67 630,-384.67 849.91,-384.67 849.91,-384.67"/>
<polygon fill="#6c757d" stroke="#6c757d" points="849.91,-388.17 859.91,-384.67 849.91,-381.17 849.91,-388.17"/>
<text text-anchor="middle" x="770.9" y="-72.35" font-family="Sans-Serif" font-size="14.00" fill="#2d3436">Logs</text>
</g>
<!-- dceced8460aa4b4a933f0f8bd1cc5732 -->
<g id="node5" class="node">
<title>dceced8460aa4b4a933f0f8bd1cc5732</title>
<image xlink:href="c:\repos\lablink-paper-figures\.venv\Lib\site-packages\resources/onprem/database\postgresql.png" width="100.8px" height="100.8px" preserveAspectRatio="xMinYMin meet" x="16" y="-580.8"/>
<text text-anchor="middle" x="66.4" y="-464.45" font-family="Helvetica,sans-Serif" font-size="14.00" fill="#2d3436">TRIGGER</text>
</g>
<!-- c4d24947896142feb0370d39c702f992&#45;&gt;dceced8460aa4b4a933f0f8bd1cc5732 -->
<g id="edge4" class="edge">
<title>c4d24947896142feb0370d39c702f992&#45;&gt;dceced8460aa4b4a933f0f8bd1cc5732</title>
<path fill="none" stroke="#6f42c1" d="M861.45,-423.33C679.45,-423.33 66.4,-423.33 66.4,-423.33 66.4,-423.33 66.4,-450.78 66.4,-450.78"/>
<polygon fill="#6f42c1" stroke="#6f42c1" points="62.9,-450.78 66.4,-460.78 69.9,-450.78 62.9,-450.78"/>
<text text-anchor="middle" x="489.1" y="-303.35" font-family="Sans-Serif" font-size="14.00" fill="#2d3436">UPDATE</text>
</g>
<!-- b5711dca6eb84b4bb4805b9e2b190b38 -->
<g id="node6" class="node">
<title>b5711dca6eb84b4bb4805b9e2b190b38</title>
<image xlink:href="c:\repos\lablink-paper-figures\.venv\Lib\site-packages\resources/onprem/database\postgresql.png" width="100.8px" height="100.8px" preserveAspectRatio="xMinYMin meet" x="297.8" y="-580.8"/>
<text text-anchor="middle" x="348.2" y="-464.45" font-family="Helvetica,sans-Serif" font-size="14.00" fill="#2d3436">pg_notify</text>
</g>
<!-- dceced8460aa4b4a933f0f8bd1cc5732&#45;&gt;b5711dca6eb84b4bb4805b9e2b190b38 -->
<g id="edge5" class="edge">
<title>dceced8460aa4b4a933f0f8bd1cc5732&#45;&gt;b5711dca6eb84b4bb4805b9e2b190b38</title>
<path fill="none" stroke="#6f42c1" d="M116.78,-530.4C116.78,-530.4 286.74,-530.4 286.74,-530.4"/>
<polygon fill="#6f42c1" stroke="#6f42c1" points="286.74,-533.9 296.74,-530.4 286.74,-526.9 286.74,-533.9"/>
</g>
<!-- b5711dca6eb84b4bb4805b9e2b190b38&#45;&gt;a98cd4c38e894f7cbec53530d89143b1 -->
<g id="edge6" class="edge">
<title>b5711dca6eb84b4bb4805b9e2b190b38&#45;&gt;a98cd4c38e894f7cbec53530d89143b1</title>
<path fill="none" stroke="#6f42c1" stroke-width="2" d="M398.58,-530.4C398.58,-530.4 568.54,-530.4 568.54,-530.4"/>
<polygon fill="#6f42c1" stroke="#6f42c1" stroke-width="2" points="567.03,-533.9 577.03,-530.4 567.03,-526.9 567.03,-533.9"/>
<text text-anchor="middle" x="489.1" y="-534.35" font-family="Sans-Serif" font-size="14.00" fill="#2d3436">NOTIFY</text>
</g>
</g>
</svg>
