<?xml version="1.0" encoding="UTF-8" standalone="no"?>
<!DOCTYPE svg PUBLIC "-//W3C//DTD SVG 1.1//EN"
 "http://www.w3.org/Graphics/SVG/1.1/DTD/svg11.dtd">
<!-- Generated by graphviz version 12.1.2 (20240928.0832)
 -->
<!-- Pages: 1 -->
<svg width="24053pt" height="2366pt"
 viewBox="0.00 0.00 5772.67 567.80" xmlns="http://www.w3.org/2000/svg" xmlns:xlink="http://www.w3.org/1999/xlink">
<g id="graph0" class="graph" transform="scale(4.16667 4.16667) rotate(0) translate(4 563.8)">
<polygon fill="white" stroke="none" points="-4,4 -4,-563.8 5768.67,-563.8 5768.67,4 -4,4"/>
<!-- root -->
<g id="node1" class="node">
<title>root</title>
<path fill="#5d6d7e" stroke="black" d="M2502.42,-559.8C2502.42,-559.8 2262.12,-559.8 2262.12,-559.8 2256.12,-559.8 2250.12,-553.8 2250.12,-547.8 2250.12,-547.8 2250.12,-528.6 2250.12,-528.6 2250.12,-522.6 2256.12,-516.6 2262.12,-516.6 2262.12,-516.6 2502.42,-516.6 2502.42,-516.6 2508.42,-516.6 2514.42,-522.6 2514.42,-528.6 2514.42,-528.6 2514.42,-547.8 2514.42,-547.8 2514.42,-553.8 2508.42,-559.8 2502.42,-559.8"/>
<text text-anchor="middle" x="2382.27" y="-528.9" font-family="Arial" font-size="24.00" fill="white">LabLink Configuration</text>
</g>
<!-- env -->
<g id="node2" class="node">
<title>env</title>
<path fill="#7fb3d5" stroke="black" d="M540.47,-461.6C540.47,-461.6 406.07,-461.6 406.07,-461.6 400.07,-461.6 394.07,-455.6 394.07,-449.6 394.07,-449.6 394.07,-412.7 394.07,-412.7 394.07,-406.7 400.07,-400.7 406.07,-400.7 406.07,-400.7 540.47,-400.7 540.47,-400.7 546.47,-400.7 552.47,-406.7 552.47,-412.7 552.47,-412.7 552.47,-449.6 552.47,-449.6 552.47,-455.6 546.47,-461.6 540.47,-461.6"/>
<text text-anchor="middle" x="473.27" y="-435.4" font-family="Arial" font-size="20.00" fill="white">Deployment</text>
<text text-anchor="middle" x="473.27" y="-412.15" font-family="Arial" font-size="20.00" fill="white">Environment</text>
</g>
<!-- root&#45;&gt;env -->
<g id="edge1" class="edge">
<title>root&#45;&gt;env</title>
<path fill="none" stroke="black" stroke-width="2" d="M2249.93,-549C1817.42,-549 473.27,-549 473.27,-549 473.27,-549 473.27,-471.83 473.27,-471.83"/>
<polygon fill="black" stroke="black" stroke-width="2" points="475.73,-471.83 473.28,-464.83 470.83,-471.83 475.73,-471.83"/>
</g>
<!-- ssl -->
<g id="node3" class="node">
<title>ssl</title>
<path fill="#c39bd3" stroke="black" d="M1345.47,-461.6C1345.47,-461.6 1211.07,-461.6 1211.07,-461.6 1205.07,-461.6 1199.07,-455.6 1199.07,-449.6 1199.07,-449.6 1199.07,-412.7 1199.07,-412.7 1199.07,-406.7 1205.07,-400.7 1211.07,-400.7 1211.07,-400.7 1345.47,-400.7 1345.47,-400.7 1351.47,-400.7 1357.47,-406.7 1357.47,-412.7 1357.47,-412.7 1357.47,-449.6 1357.47,-449.6 1357.47,-455.6 1351.47,-461.6 1345.47,-461.6"/>
<text text-anchor="middle" x="1278.27" y="-435.4" font-family="Arial" font-size="20.00" fill="white">SSL/Network</text>
<text text-anchor="middle" x="1278.27" y="-412.15" font-family="Arial" font-size="20.00" fill="white">Strategy</text>
</g>
<!-- root&#45;&gt;ssl -->
<g id="edge2" class="edge">
<title>root&#45;&gt;ssl</title>
<path fill="none" stroke="black" stroke-width="2" d="M2249.66,-538.2C1956.32,-538.2 1278.27,-538.2 1278.27,-538.2 1278.27,-538.2 1278.27,-471.85 1278.27,-471.85"/>
<polygon fill="black" stroke="black" stroke-width="2" points="1280.73,-471.85 1278.28,-464.85 1275.83,-471.85 1280.73,-471.85"/>
</g>
<!-- compute -->
<g id="node4" class="node">
<title>compute</title>
<path fill="#ec7063" stroke="black" d="M1954.47,-461.6C1954.47,-461.6 1820.07,-461.6 1820.07,-461.6 1814.07,-461.6 1808.07,-455.6 1808.07,-449.6 1808.07,-449.6 1808.07,-412.7 1808.07,-412.7 1808.07,-406.7 1814.07,-400.7 1820.07,-400.7 1820.07,-400.7 1954.47,-400.7 1954.47,-400.7 1960.47,-400.7 1966.47,-406.7 1966.47,-412.7 1966.47,-412.7 1966.47,-449.6 1966.47,-449.6 1966.47,-455.6 1960.47,-461.6 1954.47,-461.6"/>
<text text-anchor="middle" x="1887.27" y="-435.4" font-family="Arial" font-size="20.00" fill="white">Compute</text>
<text text-anchor="middle" x="1887.27" y="-412.15" font-family="Arial" font-size="20.00" fill="white">Configuration</text>
</g>
<!-- root&#45;&gt;compute -->
<g id="edge3" class="edge">
<title>root&#45;&gt;compute</title>
<path fill="none" stroke="black" stroke-width="2" d="M2249.95,-527.4C2103.32,-527.4 1887.27,-527.4 1887.27,-527.4 1887.27,-527.4 1887.27,-471.9 1887.27,-471.9"/>
<polygon fill="black" stroke="black" stroke-width="2" points="1889.73,-471.9 1887.28,-464.9 1884.83,-471.9 1889.73,-471.9"/>
</g>
<!-- app -->
<g id="node5" class="node">
<title>app</title>
<path fill="#f8c471" stroke="black" d="M2387.47,-461.6C2387.47,-461.6 2253.07,-461.6 2253.07,-461.6 2247.07,-461.6 2241.07,-455.6 2241.07,-449.6 2241.07,-449.6 2241.07,-412.7 2241.07,-412.7 2241.07,-406.7 2247.07,-400.7 2253.07,-400.7 2253.07,-400.7 2387.47,-400.7 2387.47,-400.7 2393.47,-400.7 2399.47,-406.7 2399.47,-412.7 2399.47,-412.7 2399.47,-449.6 2399.47,-449.6 2399.47,-455.6 2393.47,-461.6 2387.47,-461.6"/>
<text text-anchor="middle" x="2320.27" y="-435.4" font-family="Arial" font-size="20.00" fill="white">Application</text>
<text text-anchor="middle" x="2320.27" y="-412.15" font-family="Arial" font-size="20.00" fill="white">Settings</text>
</g>
<!-- root&#45;&gt;app -->
<g id="edge4" class="edge">
<title>root&#45;&gt;app</title>
<path fill="none" stroke="black" stroke-width="2" d="M2324.8,-516.28C2324.8,-516.28 2324.8,-472 2324.8,-472"/>
<polygon fill="black" stroke="black" stroke-width="2" points="2327.25,-472 2324.8,-465 2322.35,-472 2327.25,-472"/>
</g>
<!-- scale -->
<g id="node6" class="node">
<title>scale</title>
<path fill="#76d7c4" stroke="black" d="M2596.47,-461.6C2596.47,-461.6 2462.07,-461.6 2462.07,-461.6 2456.07,-461.6 2450.07,-455.6 2450.07,-449.6 2450.07,-449.6 2450.07,-412.7 2450.07,-412.7 2450.07,-406.7 2456.07,-400.7 2462.07,-400.7 2462.07,-400.7 2596.47,-400.7 2596.47,-400.7 2602.47,-400.7 2608.47,-406.7 2608.47,-412.7 2608.47,-412.7 2608.47,-449.6 2608.47,-449.6 2608.47,-455.6 2602.47,-461.6 2596.47,-461.6"/>
<text text-anchor="middle" x="2529.27" y="-435.4" font-family="Arial" font-size="20.00" fill="white">Scaling &amp;</text>
<text text-anchor="middle" x="2529.27" y="-412.15" font-family="Arial" font-size="20.00" fill="white">Reliability</text>
</g>
<!-- root&#45;&gt;scale -->
<g id="edge5" class="edge">
<title>root&#45;&gt;scale</title>
<path fill="none" stroke="black" stroke-width="2" d="M2482.25,-516.28C2482.25,-516.28 2482.25,-472 2482.25,-472"/>
<polygon fill="black" stroke="black" stroke-width="2" points="2484.7,-472 2482.25,-465 2479.8,-472 2484.7,-472"/>
</g>
<!-- infra -->
<g id="node7" class="node">
<title>infra</title>
<path fill="#85929e" stroke="black" d="M3280.47,-461.6C3280.47,-461.6 3146.07,-461.6 3146.07,-461.6 3140.07,-461.6 3134.07,-455.6 3134.07,-449.6 3134.07,-449.6 3134.07,-412.7 3134.07,-412.7 3134.07,-406.7 3140.07,-400.7 3146.07,-400.7 3146.07,-400.7 3280.47,-400.7 3280.47,-400.7 3286.47,-400.7 3292.47,-406.7 3292.47,-412.7 3292.47,-412.7 3292.47,-449.6 3292.47,-449.6 3292.47,-455.6 3286.47,-461.6 3280.47,-461.6"/>
<text text-anchor="middle" x="3213.27" y="-435.4" font-family="Arial" font-size="20.00" fill="white">AWS</text>
<text text-anchor="middle" x="3213.27" y="-412.15" font-family="Arial" font-size="20.00" fill="white">Infrastructure</text>
</g>
<!-- root&#45;&gt;infra -->
<g id="edge6" class="edge">
<title>root&#45;&gt;infra</title>
<path fill="none" stroke="black" stroke-width="2" d="M2514.87,-527.4C2749.48,-527.4 3213.27,-527.4 3213.27,-527.4 3213.27,-527.4 3213.27,-471.9 3213.27,-471.9"/>
<polygon fill="black" stroke="black" stroke-width="2" points="3215.73,-471.9 3213.28,-464.9 3210.83,-471.9 3215.73,-471.9"/>
</g>
<!-- auth -->
<g id="node8" class="node">
<title>auth</title>
<path fill="#e59866" stroke="black" d="M4186.47,-461.6C4186.47,-461.6 4052.07,-461.6 4052.07,-461.6 4046.07,-461.6 4040.07,-455.6 4040.07,-449.6 4040.07,-449.6 4040.07,-412.7 4040.07,-412.7 4040.07,-406.7 4046.07,-400.7 4052.07,-400.7 4052.07,-400.7 4186.47,-400.7 4186.47,-400.7 4192.47,-400.7 4198.47,-406.7 4198.47,-412.7 4198.47,-412.7 4198.47,-449.6 4198.47,-449.6 4198.47,-455.6 4192.47,-461.6 4186.47,-461.6"/>
<text text-anchor="middle" x="4119.27" y="-435.4" font-family="Arial" font-size="20.00" fill="white">Authentication</text>
<text text-anchor="middle" x="4119.27" y="-412.15" font-family="Arial" font-size="20.00" fill="white">&amp; Security</text>
</g>
<!-- root&#45;&gt;auth -->
<g id="edge7" class="edge">
<title>root&#45;&gt;auth</title>
<path fill="none" stroke="black" stroke-width="2" d="M2514.62,-538.2C2920.32,-538.2 4119.27,-538.2 4119.27,-538.2 4119.27,-538.2 4119.27,-471.85 4119.27,-471.85"/>
<polygon fill="black" stroke="black" stroke-width="2" points="4121.73,-471.85 4119.28,-464.85 4116.83,-471.85 4121.73,-471.85"/>
</g>
<!-- monitor -->
<g id="node9" class="node">
<title>monitor</title>
<path fill="#7dcea0" stroke="black" d="M5219.47,-461.6C5219.47,-461.6 5085.07,-461.6 5085.07,-461.6 5079.07,-461.6 5073.07,-455.6 5073.07,-449.6 5073.07,-449.6 5073.07,-412.7 5073.07,-412.7 5073.07,-406.7 5079.07,-400.7 5085.07,-400.7 5085.07,-400.7 5219.47,-400.7 5219.47,-400.7 5225.47,-400.7 5231.47,-406.7 5231.47,-412.7 5231.47,-412.7 5231.47,-449.6 5231.47,-449.6 5231.47,-455.6 5225.47,-461.6 5219.47,-461.6"/>
<text text-anchor="middle" x="5152.27" y="-435.4" font-family="Arial" font-size="20.00" fill="white">Monitoring</text>
<text text-anchor="middle" x="5152.27" y="-412.15" font-family="Arial" font-size="20.00" fill="white">&amp; Logging</text>
</g>
<!-- root&#45;&gt;monitor -->
<g id="edge8" class="edge">
<title>root&#45;&gt;monitor</title>
<path fill="none" stroke="black" stroke-width="2" d="M2514.48,-549C3065.68,-549 5152.27,-549 5152.27,-549 5152.27,-549 5152.27,-471.83 5152.27,-471.83"/>
<polygon fill="black" stroke="black" stroke-width="2" points="5154.73,-471.83 5152.28,-464.83 5149.83,-471.83 5154.73,-471.83"/>
</g>
<!-- env_dev -->
<g id="node10" class="node">
<title>env_dev</title>
<path fill="#f8f9f9" stroke="black" d="M134.55,-316.32C134.55,-316.32 12,-316.32 12,-316.32 6,-316.32 0,-310.32 0,-304.32 0,-304.32 0,-267.43 0,-267.43 0,-261.43 6,-255.43 12,-255.43 12,-255.43 134.55,-255.43 134.55,-255.43 140.55,-255.43 146.55,-261.43 146.55,-267.43 146.55,-267.43 146.55,-304.32 146.55,-304.32 146.55,-310.32 140.55,-316.32 134.55,-316.32"/>
<text text-anchor="middle" x="73.27" y="-290.12" font-family="Arial" font-size="20.00" fill="#2c3e50">dev</text>
<text text-anchor="middle" x="73.27" y="-266.88" font-family="Arial" font-size="20.00" fill="#2c3e50">(local, no S3)</text>
</g>
<!-- env&#45;&gt;env_dev -->
<g id="edge9" class="edge">
<title>env&#45;&gt;env_dev</title>
<path fill="none" stroke="black" d="M393.77,-431.15C277.12,-431.15 73.27,-431.15 73.27,-431.15 73.27,-431.15 73.27,-325.2 73.27,-325.2"/>
<polygon fill="black" stroke="black" points="75.73,-325.2 73.28,-318.2 70.83,-325.2 75.73,-325.2"/>
</g>
<!-- env_test -->
<g id="node11" class="node">
<title>env_test</title>
<path fill="#f8f9f9" stroke="black" d="M353.55,-316.32C353.55,-316.32 195,-316.32 195,-316.32 189,-316.32 183,-310.32 183,-304.32 183,-304.32 183,-267.43 183,-267.43 183,-261.43 189,-255.43 195,-255.43 195,-255.43 353.55,-255.43 353.55,-255.43 359.55,-255.43 365.55,-261.43 365.55,-267.43 365.55,-267.43 365.55,-304.32 365.55,-304.32 365.55,-310.32 359.55,-316.32 353.55,-316.32"/>
<text text-anchor="middle" x="274.27" y="-290.12" font-family="Arial" font-size="20.00" fill="#2c3e50">test</text>
<text text-anchor="middle" x="274.27" y="-266.88" font-family="Arial" font-size="20.00" fill="#2c3e50">(S3, auto&#45;deploy)</text>
</g>
<!-- env&#45;&gt;env_test -->
<g id="edge10" class="edge">
<title>env&#45;&gt;env_test</title>
<path fill="none" stroke="black" d="M397.79,-400.34C397.79,-357.7 397.79,-285.88 397.79,-285.88 397.79,-285.88 374.49,-285.88 374.49,-285.88"/>
<polygon fill="black" stroke="black" points="374.49,-283.43 367.49,-285.88 374.49,-288.33 374.49,-283.43"/>
</g>
<!-- env_prod -->
<g id="node12" class="node">
<title>env_prod</title>
<path fill="#f8f9f9" stroke="black" d="M533.05,-316.32C533.05,-316.32 413.5,-316.32 413.5,-316.32 407.5,-316.32 401.5,-310.32 401.5,-304.32 401.5,-304.32 401.5,-267.43 401.5,-267.43 401.5,-261.43 407.5,-255.43 413.5,-255.43 413.5,-255.43 533.05,-255.43 533.05,-255.43 539.05,-255.43 545.05,-261.43 545.05,-267.43 545.05,-267.43 545.05,-304.32 545.05,-304.32 545.05,-310.32 539.05,-316.32 533.05,-316.32"/>
<text text-anchor="middle" x="473.27" y="-290.12" font-family="Arial" font-size="20.00" fill="#2c3e50">prod</text>
<text text-anchor="middle" x="473.27" y="-266.88" font-family="Arial" font-size="20.00" fill="#2c3e50">(S3, manual)</text>
</g>
<!-- env&#45;&gt;env_prod -->
<g id="edge11" class="edge">
<title>env&#45;&gt;env_prod</title>
<path fill="none" stroke="black" d="M473.27,-400.34C473.27,-400.34 473.27,-325.15 473.27,-325.15"/>
<polygon fill="black" stroke="black" points="475.73,-325.15 473.28,-318.15 470.83,-325.15 475.73,-325.15"/>
</g>
<!-- env_ci&#45;test -->
<g id="node13" class="node">
<title>env_ci&#45;test</title>
<path fill="#f8f9f9" stroke="black" d="M699.07,-316.32C699.07,-316.32 593.47,-316.32 593.47,-316.32 587.47,-316.32 581.47,-310.32 581.47,-304.32 581.47,-304.32 581.47,-267.43 581.47,-267.43 581.47,-261.43 587.47,-255.43 593.47,-255.43 593.47,-255.43 699.07,-255.43 699.07,-255.43 705.07,-255.43 711.07,-261.43 711.07,-267.43 711.07,-267.43 711.07,-304.32 711.07,-304.32 711.07,-310.32 705.07,-316.32 699.07,-316.32"/>
<text text-anchor="middle" x="646.27" y="-290.12" font-family="Arial" font-size="20.00" fill="#2c3e50">ci&#45;test</text>
<text text-anchor="middle" x="646.27" y="-266.88" font-family="Arial" font-size="20.00" fill="#2c3e50">(CI testing)</text>
</g>
<!-- env&#45;&gt;env_ci&#45;test -->
<g id="edge12" class="edge">
<title>env&#45;&gt;env_ci&#45;test</title>
<path fill="none" stroke="black" d="M548.76,-400.34C548.76,-357.7 548.76,-285.88 548.76,-285.88 548.76,-285.88 572.72,-285.88 572.72,-285.88"/>
<polygon fill="black" stroke="black" points="572.72,-288.33 579.72,-285.88 572.72,-283.43 572.72,-288.33"/>
</g>
<!-- ssl_none -->
<g id="node14" class="node">
<title>ssl_none</title>
<path fill="#f8f9f9" stroke="black" d="M933.05,-316.32C933.05,-316.32 759.5,-316.32 759.5,-316.32 753.5,-316.32 747.5,-310.32 747.5,-304.32 747.5,-304.32 747.5,-267.43 747.5,-267.43 747.5,-261.43 753.5,-255.43 759.5,-255.43 759.5,-255.43 933.05,-255.43 933.05,-255.43 939.05,-255.43 945.05,-261.43 945.05,-267.43 945.05,-267.43 945.05,-304.32 945.05,-304.32 945.05,-310.32 939.05,-316.32 933.05,-316.32"/>
<text text-anchor="middle" x="846.27" y="-290.12" font-family="Arial" font-size="20.00" fill="#2c3e50">none</text>
<text text-anchor="middle" x="846.27" y="-266.88" font-family="Arial" font-size="20.00" fill="#2c3e50">(HTTP:80 → 5000)</text>
</g>
<!-- ssl&#45;&gt;ssl_none -->
<g id="edge13" class="edge">
<title>ssl&#45;&gt;ssl_none</title>
<path fill="none" stroke="black" d="M1198.79,-431.15C1074.02,-431.15 846.27,-431.15 846.27,-431.15 846.27,-431.15 846.27,-325.2 846.27,-325.2"/>
<polygon fill="black" stroke="black" points="848.73,-325.2 846.28,-318.2 843.83,-325.2 848.73,-325.2"/>
<text text-anchor="middle" x="893.9" y="-358.5" font-family="Arial" font-size="16.00">Development</text>
</g>
<!-- ssl_letsencrypt -->
<g id="node15" class="node">
<title>ssl_letsencrypt</title>
<path fill="#f8f9f9" stroke="black" d="M1157.92,-316.32C1157.92,-316.32 992.62,-316.32 992.62,-316.32 986.62,-316.32 980.62,-310.32 980.62,-304.32 980.62,-304.32 980.62,-267.43 980.62,-267.43 980.62,-261.43 986.62,-255.43 992.62,-255.43 992.62,-255.43 1157.92,-255.43 1157.92,-255.43 1163.92,-255.43 1169.92,-261.43 1169.92,-267.43 1169.92,-267.43 1169.92,-304.32 1169.92,-304.32 1169.92,-310.32 1163.92,-316.32 1157.92,-316.32"/>
<text text-anchor="middle" x="1075.27" y="-290.12" font-family="Arial" font-size="20.00" fill="#2c3e50">letsencrypt</text>
<text text-anchor="middle" x="1075.27" y="-266.88" font-family="Arial" font-size="20.00" fill="#2c3e50">(Caddy auto&#45;SSL)</text>
</g>
<!-- ssl&#45;&gt;ssl_letsencrypt -->
<g id="edge14" class="edge">
<title>ssl&#45;&gt;ssl_letsencrypt</title>
<path fill="none" stroke="black" d="M1202.67,-400.34C1202.67,-357.7 1202.67,-285.88 1202.67,-285.88 1202.67,-285.88 1178.71,-285.88 1178.71,-285.88"/>
<polygon fill="black" stroke="black" points="1178.71,-283.43 1171.71,-285.88 1178.71,-288.33 1178.71,-283.43"/>
<text text-anchor="middle" x="1113.9" y="-358.5" font-family="Arial" font-size="16.00">Production</text>
</g>
<!-- ssl_cloudflare -->
<g id="node16" class="node">
<title>ssl_cloudflare</title>
<path fill="#f8f9f9" stroke="black" d="M1338.27,-316.32C1338.27,-316.32 1218.27,-316.32 1218.27,-316.32 1212.27,-316.32 1206.27,-310.32 1206.27,-304.32 1206.27,-304.32 1206.27,-267.43 1206.27,-267.43 1206.27,-261.43 1212.27,-255.43 1218.27,-255.43 1218.27,-255.43 1338.27,-255.43 1338.27,-255.43 1344.27,-255.43 1350.27,-261.43 1350.27,-267.43 1350.27,-267.43 1350.27,-304.32 1350.27,-304.32 1350.27,-310.32 1344.27,-316.32 1338.27,-316.32"/>
<text text-anchor="middle" x="1278.27" y="-290.12" font-family="Arial" font-size="20.00" fill="#2c3e50">cloudflare</text>
<text text-anchor="middle" x="1278.27" y="-266.88" font-family="Arial" font-size="20.00" fill="#2c3e50">(CF proxy)</text>
</g>
<!-- ssl&#45;&gt;ssl_cloudflare -->
<g id="edge15" class="edge">
<title>ssl&#45;&gt;ssl_cloudflare</title>
<path fill="none" stroke="black" d="M1278.27,-400.34C1278.27,-400.34 1278.27,-325.15 1278.27,-325.15"/>
<polygon fill="black" stroke="black" points="1280.73,-325.15 1278.28,-318.15 1275.83,-325.15 1280.73,-325.15"/>
<text text-anchor="middle" x="1316.9" y="-358.5" font-family="Arial" font-size="16.00">Production</text>
</g>
<!-- ssl_acm -->
<g id="node17" class="node">
<title>ssl_acm</title>
<path fill="#f8f9f9" stroke="black" d="M1560.05,-316.32C1560.05,-316.32 1398.5,-316.32 1398.5,-316.32 1392.5,-316.32 1386.5,-310.32 1386.5,-304.32 1386.5,-304.32 1386.5,-267.43 1386.5,-267.43 1386.5,-261.43 1392.5,-255.43 1398.5,-255.43 1398.5,-255.43 1560.05,-255.43 1560.05,-255.43 1566.05,-255.43 1572.05,-261.43 1572.05,-267.43 1572.05,-267.43 1572.05,-304.32 1572.05,-304.32 1572.05,-310.32 1566.05,-316.32 1560.05,-316.32"/>
<text text-anchor="middle" x="1479.27" y="-290.12" font-family="Arial" font-size="20.00" fill="#2c3e50">acm</text>
<text text-anchor="middle" x="1479.27" y="-266.88" font-family="Arial" font-size="20.00" fill="#2c3e50">(AWS ALB + cert)</text>
</g>
<!-- ssl&#45;&gt;ssl_acm -->
<g id="edge16" class="edge">
<title>ssl&#45;&gt;ssl_acm</title>
<path fill="none" stroke="black" d="M1357.72,-441.3C1413.9,-441.3 1479.27,-441.3 1479.27,-441.3 1479.27,-441.3 1479.27,-325.1 1479.27,-325.1"/>
<polygon fill="black" stroke="black" points="1481.73,-325.1 1479.28,-318.1 1476.83,-325.1 1481.73,-325.1"/>
<text text-anchor="middle" x="1475.02" y="-358.5" font-family="Arial" font-size="16.00">Enterprise</text>
</g>
<!-- compute_gpu -->
<g id="node19" class="node">
<title>compute_gpu</title>
<path fill="#e8f8f5" stroke="black" d="M1758.42,-304.7C1758.42,-304.7 1620.12,-304.7 1620.12,-304.7 1614.12,-304.7 1608.12,-298.7 1608.12,-292.7 1608.12,-292.7 1608.12,-279.05 1608.12,-279.05 1608.12,-273.05 1614.12,-267.05 1620.12,-267.05 1620.12,-267.05 1758.42,-267.05 1758.42,-267.05 1764.42,-267.05 1770.42,-273.05 1770.42,-279.05 1770.42,-279.05 1770.42,-292.7 1770.42,-292.7 1770.42,-298.7 1764.42,-304.7 1758.42,-304.7"/>
<text text-anchor="middle" x="1689.27" y="-278.5" font-family="Arial" font-size="20.00" fill="#52be80">GPU Instances</text>
</g>
<!-- compute&#45;&gt;compute_gpu -->
<g id="edge18" class="edge">
<title>compute&#45;&gt;compute_gpu</title>
<path fill="none" stroke="black" d="M1807.6,-421C1752.58,-421 1689.27,-421 1689.27,-421 1689.27,-421 1689.27,-313.46 1689.27,-313.46"/>
<polygon fill="black" stroke="black" points="1691.73,-313.46 1689.28,-306.46 1686.83,-313.46 1691.73,-313.46"/>
</g>
<!-- compute_cpu -->
<g id="node20" class="node">
<title>compute_cpu</title>
<path fill="#e8f8f5" stroke="black" d="M1955.67,-304.7C1955.67,-304.7 1818.87,-304.7 1818.87,-304.7 1812.87,-304.7 1806.87,-298.7 1806.87,-292.7 1806.87,-292.7 1806.87,-279.05 1806.87,-279.05 1806.87,-273.05 1812.87,-267.05 1818.87,-267.05 1818.87,-267.05 1955.67,-267.05 1955.67,-267.05 1961.67,-267.05 1967.67,-273.05 1967.67,-279.05 1967.67,-279.05 1967.67,-292.7 1967.67,-292.7 1967.67,-298.7 1961.67,-304.7 1955.67,-304.7"/>
<text text-anchor="middle" x="1887.27" y="-278.5" font-family="Arial" font-size="20.00" fill="#52be80">CPU Instances</text>
</g>
<!-- compute&#45;&gt;compute_cpu -->
<g id="edge19" class="edge">
<title>compute&#45;&gt;compute_cpu</title>
<path fill="none" stroke="black" d="M1887.27,-400.34C1887.27,-400.34 1887.27,-313.6 1887.27,-313.6"/>
<polygon fill="black" stroke="black" points="1889.73,-313.6 1887.28,-306.6 1884.83,-313.6 1889.73,-313.6"/>
</g>
<!-- app_sleap -->
<g id="node29" class="node">
<title>app_sleap</title>
<path fill="#f8f9f9" stroke="black" d="M2180.92,-327.95C2180.92,-327.95 2015.62,-327.95 2015.62,-327.95 2009.62,-327.95 2003.62,-321.95 2003.62,-315.95 2003.62,-315.95 2003.62,-255.8 2003.62,-255.8 2003.62,-249.8 2009.62,-243.8 2015.62,-243.8 2015.62,-243.8 2180.92,-243.8 2180.92,-243.8 2186.92,-243.8 2192.92,-249.8 2192.92,-255.8 2192.92,-255.8 2192.92,-315.95 2192.92,-315.95 2192.92,-321.95 2186.92,-327.95 2180.92,-327.95"/>
<text text-anchor="middle" x="2098.27" y="-301.75" font-family="Arial" font-size="20.00" fill="#2c3e50">SLEAP</text>
<text text-anchor="middle" x="2098.27" y="-278.5" font-family="Arial" font-size="20.00" fill="#2c3e50">.slp files</text>
<text text-anchor="middle" x="2098.27" y="-255.25" font-family="Arial" font-size="20.00" fill="#2c3e50">sleap&#45;tutorial&#45;data</text>
</g>
<!-- app&#45;&gt;app_sleap -->
<g id="edge28" class="edge">
<title>app&#45;&gt;app_sleap</title>
<path fill="none" stroke="black" d="M2240.75,-431.15C2177.05,-431.15 2098.27,-431.15 2098.27,-431.15 2098.27,-431.15 2098.27,-336.8 2098.27,-336.8"/>
<polygon fill="black" stroke="black" points="2100.73,-336.8 2098.28,-329.8 2095.83,-336.8 2100.73,-336.8"/>
</g>
<!-- app_custom -->
<g id="node30" class="node">
<title>app_custom</title>
<path fill="#f8f9f9" stroke="black" d="M2399.92,-327.95C2399.92,-327.95 2240.62,-327.95 2240.62,-327.95 2234.62,-327.95 2228.62,-321.95 2228.62,-315.95 2228.62,-315.95 2228.62,-255.8 2228.62,-255.8 2228.62,-249.8 2234.62,-243.8 2240.62,-243.8 2240.62,-243.8 2399.92,-243.8 2399.92,-243.8 2405.92,-243.8 2411.92,-249.8 2411.92,-255.8 2411.92,-255.8 2411.92,-315.95 2411.92,-315.95 2411.92,-321.95 2405.92,-327.95 2399.92,-327.95"/>
<text text-anchor="middle" x="2320.27" y="-301.75" font-family="Arial" font-size="20.00" fill="#2c3e50">Custom App</text>
<text text-anchor="middle" x="2320.27" y="-278.5" font-family="Arial" font-size="20.00" fill="#2c3e50">custom extension</text>
<text text-anchor="middle" x="2320.27" y="-255.25" font-family="Arial" font-size="20.00" fill="#2c3e50">custom repo</text>
</g>
<!-- app&#45;&gt;app_custom -->
<g id="edge29" class="edge">
<title>app&#45;&gt;app_custom</title>
<path fill="none" stroke="black" d="M2320.27,-400.34C2320.27,-400.34 2320.27,-336.73 2320.27,-336.73"/>
<polygon fill="black" stroke="black" points="2322.73,-336.73 2320.28,-329.73 2317.83,-336.73 2322.73,-336.73"/>
</g>
<!-- scale_count -->
<g id="node31" class="node">
<title>scale_count</title>
<path fill="#f8f9f9" stroke="black" d="M2598.8,-316.32C2598.8,-316.32 2459.75,-316.32 2459.75,-316.32 2453.75,-316.32 2447.75,-310.32 2447.75,-304.32 2447.75,-304.32 2447.75,-267.43 2447.75,-267.43 2447.75,-261.43 2453.75,-255.43 2459.75,-255.43 2459.75,-255.43 2598.8,-255.43 2598.8,-255.43 2604.8,-255.43 2610.8,-261.43 2610.8,-267.43 2610.8,-267.43 2610.8,-304.32 2610.8,-304.32 2610.8,-310.32 2604.8,-316.32 2598.8,-316.32"/>
<text text-anchor="middle" x="2529.27" y="-290.12" font-family="Arial" font-size="20.00" fill="#2c3e50">instance_count</text>
<text text-anchor="middle" x="2529.27" y="-266.88" font-family="Arial" font-size="20.00" fill="#2c3e50">(1&#45;N VMs)</text>
</g>
<!-- scale&#45;&gt;scale_count -->
<g id="edge30" class="edge">
<title>scale&#45;&gt;scale_count</title>
<path fill="none" stroke="black" d="M2529.27,-400.34C2529.27,-400.34 2529.27,-325.15 2529.27,-325.15"/>
<polygon fill="black" stroke="black" points="2531.73,-325.15 2529.28,-318.15 2526.83,-325.15 2531.73,-325.15"/>
</g>
<!-- scale_error -->
<g id="node32" class="node">
<title>scale_error</title>
<path fill="#f8f9f9" stroke="black" d="M2811.92,-316.32C2811.92,-316.32 2658.62,-316.32 2658.62,-316.32 2652.62,-316.32 2646.62,-310.32 2646.62,-304.32 2646.62,-304.32 2646.62,-267.43 2646.62,-267.43 2646.62,-261.43 2652.62,-255.43 2658.62,-255.43 2658.62,-255.43 2811.92,-255.43 2811.92,-255.43 2817.92,-255.43 2823.92,-261.43 2823.92,-267.43 2823.92,-267.43 2823.92,-304.32 2823.92,-304.32 2823.92,-310.32 2817.92,-316.32 2811.92,-316.32"/>
<text text-anchor="middle" x="2735.27" y="-290.12" font-family="Arial" font-size="20.00" fill="#2c3e50">startup_on_error</text>
<text text-anchor="middle" x="2735.27" y="-266.88" font-family="Arial" font-size="20.00" fill="#2c3e50">(continue | fail)</text>
</g>
<!-- scale&#45;&gt;scale_error -->
<g id="edge31" class="edge">
<title>scale&#45;&gt;scale_error</title>
<path fill="none" stroke="black" d="M2608.92,-421C2666.89,-421 2735.27,-421 2735.27,-421 2735.27,-421 2735.27,-325.05 2735.27,-325.05"/>
<polygon fill="black" stroke="black" points="2737.73,-325.05 2735.28,-318.05 2732.83,-325.05 2737.73,-325.05"/>
</g>
<!-- infra_0 -->
<g id="node33" class="node">
<title>infra_0</title>
<path fill="#f8f9f9" stroke="black" d="M3086.3,-314.82C3086.3,-314.82 2872.25,-314.82 2872.25,-314.82 2866.25,-314.82 2860.25,-308.82 2860.25,-302.82 2860.25,-302.82 2860.25,-268.93 2860.25,-268.93 2860.25,-262.93 2866.25,-256.93 2872.25,-256.93 2872.25,-256.93 3086.3,-256.93 3086.3,-256.93 3092.3,-256.93 3098.3,-262.93 3098.3,-268.93 3098.3,-268.93 3098.3,-302.82 3098.3,-302.82 3098.3,-308.82 3092.3,-314.82 3086.3,-314.82"/>
<text text-anchor="middle" x="2979.27" y="-289.57" font-family="Arial" font-size="19.00" fill="#2c3e50">region</text>
<text text-anchor="middle" x="2979.27" y="-267.82" font-family="Arial" font-size="19.00" fill="#2c3e50">(us&#45;west&#45;2, us&#45;east&#45;1, ...)</text>
</g>
<!-- infra&#45;&gt;infra_0 -->
<g id="edge32" class="edge">
<title>infra&#45;&gt;infra_0</title>
<path fill="none" stroke="black" d="M3133.73,-441.3C3065.89,-441.3 2979.27,-441.3 2979.27,-441.3 2979.27,-441.3 2979.27,-323.62 2979.27,-323.62"/>
<polygon fill="black" stroke="black" points="2981.73,-323.62 2979.28,-316.62 2976.83,-323.62 2981.73,-323.62"/>
</g>
<!-- infra_1 -->
<g id="node34" class="node">
<title>infra_1</title>
<path fill="#f8f9f9" stroke="black" d="M3280.47,-314.82C3280.47,-314.82 3146.07,-314.82 3146.07,-314.82 3140.07,-314.82 3134.07,-308.82 3134.07,-302.82 3134.07,-302.82 3134.07,-268.93 3134.07,-268.93 3134.07,-262.93 3140.07,-256.93 3146.07,-256.93 3146.07,-256.93 3280.47,-256.93 3280.47,-256.93 3286.47,-256.93 3292.47,-262.93 3292.47,-268.93 3292.47,-268.93 3292.47,-302.82 3292.47,-302.82 3292.47,-308.82 3286.47,-314.82 3280.47,-314.82"/>
<text text-anchor="middle" x="3213.27" y="-289.57" font-family="Arial" font-size="19.00" fill="#2c3e50">client_ami_id</text>
<text text-anchor="middle" x="3213.27" y="-267.82" font-family="Arial" font-size="19.00" fill="#2c3e50">(AMI selection)</text>
</g>
<!-- infra&#45;&gt;infra_1 -->
<g id="edge33" class="edge">
<title>infra&#45;&gt;infra_1</title>
<path fill="none" stroke="black" d="M3213.27,-400.34C3213.27,-400.34 3213.27,-323.67 3213.27,-323.67"/>
<polygon fill="black" stroke="black" points="3215.73,-323.67 3213.28,-316.67 3210.83,-323.67 3215.73,-323.67"/>
</g>
<!-- infra_2 -->
<g id="node35" class="node">
<title>infra_2</title>
<path fill="#f8f9f9" stroke="black" d="M3474.47,-314.82C3474.47,-314.82 3340.07,-314.82 3340.07,-314.82 3334.07,-314.82 3328.07,-308.82 3328.07,-302.82 3328.07,-302.82 3328.07,-268.93 3328.07,-268.93 3328.07,-262.93 3334.07,-256.93 3340.07,-256.93 3340.07,-256.93 3474.47,-256.93 3474.47,-256.93 3480.47,-256.93 3486.47,-262.93 3486.47,-268.93 3486.47,-268.93 3486.47,-302.82 3486.47,-302.82 3486.47,-308.82 3480.47,-314.82 3474.47,-314.82"/>
<text text-anchor="middle" x="3407.27" y="-289.57" font-family="Arial" font-size="19.00" fill="#2c3e50">image_name</text>
<text text-anchor="middle" x="3407.27" y="-267.82" font-family="Arial" font-size="19.00" fill="#2c3e50">(Docker image)</text>
</g>
<!-- infra&#45;&gt;infra_2 -->
<g id="edge34" class="edge">
<title>infra&#45;&gt;infra_2</title>
<path fill="none" stroke="black" d="M3292.74,-415.92C3346.32,-415.92 3407.27,-415.92 3407.27,-415.92 3407.27,-415.92 3407.27,-323.57 3407.27,-323.57"/>
<polygon fill="black" stroke="black" points="3409.73,-323.57 3407.28,-316.57 3404.83,-323.57 3409.73,-323.57"/>
</g>
<!-- infra_3 -->
<g id="node36" class="node">
<title>infra_3</title>
<path fill="#f8f9f9" stroke="black" d="M3720.42,-314.82C3720.42,-314.82 3534.12,-314.82 3534.12,-314.82 3528.12,-314.82 3522.12,-308.82 3522.12,-302.82 3522.12,-302.82 3522.12,-268.93 3522.12,-268.93 3522.12,-262.93 3528.12,-256.93 3534.12,-256.93 3534.12,-256.93 3720.42,-256.93 3720.42,-256.93 3726.42,-256.93 3732.42,-262.93 3732.42,-268.93 3732.42,-268.93 3732.42,-302.82 3732.42,-302.82 3732.42,-308.82 3726.42,-314.82 3720.42,-314.82"/>
<text text-anchor="middle" x="3627.27" y="-289.57" font-family="Arial" font-size="19.00" fill="#2c3e50">EIP strategy</text>
<text text-anchor="middle" x="3627.27" y="-267.82" font-family="Arial" font-size="19.00" fill="#2c3e50">(persistent | dynamic)</text>
</g>
<!-- infra&#45;&gt;infra_3 -->
<g id="edge35" class="edge">
<title>infra&#45;&gt;infra_3</title>
<path fill="none" stroke="black" d="M3292.61,-446.38C3412.82,-446.38 3627.27,-446.38 3627.27,-446.38 3627.27,-446.38 3627.27,-323.83 3627.27,-323.83"/>
<polygon fill="black" stroke="black" points="3629.73,-323.83 3627.28,-316.83 3624.83,-323.83 3629.73,-323.83"/>
</g>
<!-- auth_0 -->
<g id="node37" class="node">
<title>auth_0</title>
<path fill="#f8f9f9" stroke="black" d="M3972.42,-314.82C3972.42,-314.82 3780.12,-314.82 3780.12,-314.82 3774.12,-314.82 3768.12,-308.82 3768.12,-302.82 3768.12,-302.82 3768.12,-268.93 3768.12,-268.93 3768.12,-262.93 3774.12,-256.93 3780.12,-256.93 3780.12,-256.93 3972.42,-256.93 3972.42,-256.93 3978.42,-256.93 3984.42,-262.93 3984.42,-268.93 3984.42,-268.93 3984.42,-302.82 3984.42,-302.82 3984.42,-308.82 3978.42,-314.82 3972.42,-314.82"/>
<text text-anchor="middle" x="3876.27" y="-289.57" font-family="Arial" font-size="19.00" fill="#2c3e50">admin credentials</text>
<text text-anchor="middle" x="3876.27" y="-267.82" font-family="Arial" font-size="19.00" fill="#2c3e50">(username, password)</text>
</g>
<!-- auth&#45;&gt;auth_0 -->
<g id="edge36" class="edge">
<title>auth&#45;&gt;auth_0</title>
<path fill="none" stroke="black" d="M4039.71,-431.15C3968.84,-431.15 3876.27,-431.15 3876.27,-431.15 3876.27,-431.15 3876.27,-323.79 3876.27,-323.79"/>
<polygon fill="black" stroke="black" points="3878.73,-323.79 3876.28,-316.79 3873.83,-323.79 3878.73,-323.79"/>
</g>
<!-- auth_1 -->
<g id="node38" class="node">
<title>auth_1</title>
<path fill="#f8f9f9" stroke="black" d="M4206.42,-314.82C4206.42,-314.82 4032.12,-314.82 4032.12,-314.82 4026.12,-314.82 4020.12,-308.82 4020.12,-302.82 4020.12,-302.82 4020.12,-268.93 4020.12,-268.93 4020.12,-262.93 4026.12,-256.93 4032.12,-256.93 4032.12,-256.93 4206.42,-256.93 4206.42,-256.93 4212.42,-256.93 4218.42,-262.93 4218.42,-268.93 4218.42,-268.93 4218.42,-302.82 4218.42,-302.82 4218.42,-308.82 4212.42,-314.82 4206.42,-314.82"/>
<text text-anchor="middle" x="4119.27" y="-289.57" font-family="Arial" font-size="19.00" fill="#2c3e50">database_password</text>
<text text-anchor="middle" x="4119.27" y="-267.82" font-family="Arial" font-size="19.00" fill="#2c3e50">(PostgreSQL)</text>
</g>
<!-- auth&#45;&gt;auth_1 -->
<g id="edge37" class="edge">
<title>auth&#45;&gt;auth_1</title>
<path fill="none" stroke="black" d="M4119.27,-400.34C4119.27,-400.34 4119.27,-323.67 4119.27,-323.67"/>
<polygon fill="black" stroke="black" points="4121.73,-323.67 4119.28,-316.67 4116.83,-323.67 4121.73,-323.67"/>
</g>
<!-- auth_2 -->
<g id="node39" class="node">
<title>auth_2</title>
<path fill="#f8f9f9" stroke="black" d="M4484.55,-314.82C4484.55,-314.82 4266,-314.82 4266,-314.82 4260,-314.82 4254,-308.82 4254,-302.82 4254,-302.82 4254,-268.93 4254,-268.93 4254,-262.93 4260,-256.93 4266,-256.93 4266,-256.93 4484.55,-256.93 4484.55,-256.93 4490.55,-256.93 4496.55,-262.93 4496.55,-268.93 4496.55,-268.93 4496.55,-302.82 4496.55,-302.82 4496.55,-308.82 4490.55,-314.82 4484.55,-314.82"/>
<text text-anchor="middle" x="4375.27" y="-289.57" font-family="Arial" font-size="19.00" fill="#2c3e50">AWS credentials</text>
<text text-anchor="middle" x="4375.27" y="-267.82" font-family="Arial" font-size="19.00" fill="#2c3e50">(access_key, secret_key)</text>
</g>
<!-- auth&#45;&gt;auth_2 -->
<g id="edge38" class="edge">
<title>auth&#45;&gt;auth_2</title>
<path fill="none" stroke="black" d="M4198.87,-421C4274.02,-421 4375.27,-421 4375.27,-421 4375.27,-421 4375.27,-323.71 4375.27,-323.71"/>
<polygon fill="black" stroke="black" points="4377.73,-323.71 4375.28,-316.71 4372.83,-323.71 4377.73,-323.71"/>
</g>
<!-- auth_3 -->
<g id="node40" class="node">
<title>auth_3</title>
<path fill="#f8f9f9" stroke="black" d="M4703.55,-314.82C4703.55,-314.82 4545,-314.82 4545,-314.82 4539,-314.82 4533,-308.82 4533,-302.82 4533,-302.82 4533,-268.93 4533,-268.93 4533,-262.93 4539,-256.93 4545,-256.93 4545,-256.93 4703.55,-256.93 4703.55,-256.93 4709.55,-256.93 4715.55,-262.93 4715.55,-268.93 4715.55,-268.93 4715.55,-302.82 4715.55,-302.82 4715.55,-308.82 4709.55,-314.82 4703.55,-314.82"/>
<text text-anchor="middle" x="4624.27" y="-289.57" font-family="Arial" font-size="19.00" fill="#2c3e50">Security groups</text>
<text text-anchor="middle" x="4624.27" y="-267.82" font-family="Arial" font-size="19.00" fill="#2c3e50">(HTTP, SSH, ALB)</text>
</g>
<!-- auth&#45;&gt;auth_3 -->
<g id="edge39" class="edge">
<title>auth&#45;&gt;auth_3</title>
<path fill="none" stroke="black" d="M4198.74,-441.3C4340.95,-441.3 4624.27,-441.3 4624.27,-441.3 4624.27,-441.3 4624.27,-323.62 4624.27,-323.62"/>
<polygon fill="black" stroke="black" points="4626.73,-323.62 4624.28,-316.62 4621.83,-323.62 4626.73,-323.62"/>
</g>
<!-- monitor_0 -->
<g id="node41" class="node">
<title>monitor_0</title>
<path fill="#f8f9f9" stroke="black" d="M5006.92,-314.82C5006.92,-314.82 4763.62,-314.82 4763.62,-314.82 4757.62,-314.82 4751.62,-308.82 4751.62,-302.82 4751.62,-302.82 4751.62,-268.93 4751.62,-268.93 4751.62,-262.93 4757.62,-256.93 4763.62,-256.93 4763.62,-256.93 5006.92,-256.93 5006.92,-256.93 5012.92,-256.93 5018.92,-262.93 5018.92,-268.93 5018.92,-268.93 5018.92,-302.82 5018.92,-302.82 5018.92,-308.82 5012.92,-314.82 5006.92,-314.82"/>
<text text-anchor="middle" x="4885.27" y="-289.57" font-family="Arial" font-size="19.00" fill="#2c3e50">cloud_init_output_log_group</text>
<text text-anchor="middle" x="4885.27" y="-267.82" font-family="Arial" font-size="19.00" fill="#2c3e50">(CloudWatch)</text>
</g>
<!-- monitor&#45;&gt;monitor_0 -->
<g id="edge40" class="edge">
<title>monitor&#45;&gt;monitor_0</title>
<path fill="none" stroke="black" d="M5112.67,-400.29C5112.67,-363.68 5112.67,-307.57 5112.67,-307.57 5112.67,-307.57 5027.71,-307.57 5027.71,-307.57"/>
<polygon fill="black" stroke="black" points="5027.71,-305.13 5020.71,-307.58 5027.71,-310.03 5027.71,-305.13"/>
</g>
<!-- monitor_1 -->
<g id="node42" class="node">
<title>monitor_1</title>
<path fill="#f8f9f9" stroke="black" d="M5237.17,-303.95C5237.17,-303.95 5067.38,-303.95 5067.38,-303.95 5061.38,-303.95 5055.38,-297.95 5055.38,-291.95 5055.38,-291.95 5055.38,-279.8 5055.38,-279.8 5055.38,-273.8 5061.38,-267.8 5067.38,-267.8 5067.38,-267.8 5237.17,-267.8 5237.17,-267.8 5243.17,-267.8 5249.17,-273.8 5249.17,-279.8 5249.17,-279.8 5249.17,-291.95 5249.17,-291.95 5249.17,-297.95 5243.17,-303.95 5237.17,-303.95"/>
<text text-anchor="middle" x="5152.27" y="-278.7" font-family="Arial" font-size="19.00" fill="#2c3e50">Log retention policy</text>
</g>
<!-- monitor&#45;&gt;monitor_1 -->
<g id="edge41" class="edge">
<title>monitor&#45;&gt;monitor_1</title>
<path fill="none" stroke="black" d="M5152.27,-400.34C5152.27,-400.34 5152.27,-312.76 5152.27,-312.76"/>
<polygon fill="black" stroke="black" points="5154.73,-312.76 5152.28,-305.76 5149.83,-312.76 5154.73,-312.76"/>
</g>
<!-- monitor_2 -->
<g id="node43" class="node">
<title>monitor_2</title>
<path fill="#f8f9f9" stroke="black" d="M5489.42,-303.95C5489.42,-303.95 5297.12,-303.95 5297.12,-303.95 5291.12,-303.95 5285.12,-297.95 5285.12,-291.95 5285.12,-291.95 5285.12,-279.8 5285.12,-279.8 5285.12,-273.8 5291.12,-267.8 5297.12,-267.8 5297.12,-267.8 5489.42,-267.8 5489.42,-267.8 5495.42,-267.8 5501.42,-273.8 5501.42,-279.8 5501.42,-279.8 5501.42,-291.95 5501.42,-291.95 5501.42,-297.95 5495.42,-303.95 5489.42,-303.95"/>
<text text-anchor="middle" x="5393.27" y="-278.7" font-family="Arial" font-size="19.00" fill="#2c3e50">Lambda log processor</text>
</g>
<!-- monitor&#45;&gt;monitor_2 -->
<g id="edge42" class="edge">
<title>monitor&#45;&gt;monitor_2</title>
<path fill="none" stroke="black" d="M5231.86,-431.15C5302.05,-431.15 5393.27,-431.15 5393.27,-431.15 5393.27,-431.15 5393.27,-312.79 5393.27,-312.79"/>
<polygon fill="black" stroke="black" points="5395.73,-312.79 5393.28,-305.79 5390.83,-312.79 5395.73,-312.79"/>
</g>
<!-- monitor_3 -->
<g id="node44" class="node">
<title>monitor_3</title>
<path fill="#f8f9f9" stroke="black" d="M5752.67,-314.82C5752.67,-314.82 5549.88,-314.82 5549.88,-314.82 5543.88,-314.82 5537.88,-308.82 5537.88,-302.82 5537.88,-302.82 5537.88,-268.93 5537.88,-268.93 5537.88,-262.93 5543.88,-256.93 5549.88,-256.93 5549.88,-256.93 5752.67,-256.93 5752.67,-256.93 5758.67,-256.93 5764.67,-262.93 5764.67,-268.93 5764.67,-268.93 5764.67,-302.82 5764.67,-302.82 5764.67,-308.82 5758.67,-314.82 5752.67,-314.82"/>
<text text-anchor="middle" x="5651.27" y="-289.57" font-family="Arial" font-size="19.00" fill="#2c3e50">Polling intervals</text>
<text text-anchor="middle" x="5651.27" y="-267.82" font-family="Arial" font-size="19.00" fill="#2c3e50">(GPU: 20s, usage: 20s)</text>
</g>
<!-- monitor&#45;&gt;monitor_3 -->
<g id="edge43" class="edge">
<title>monitor&#45;&gt;monitor_3</title>
<path fill="none" stroke="black" d="M5191.88,-400.26C5191.88,-364.72 5191.88,-311.2 5191.88,-311.2 5191.88,-311.2 5528.91,-311.2 5528.91,-311.2"/>
<polygon fill="black" stroke="black" points="5528.91,-313.65 5535.91,-311.2 5528.91,-308.75 5528.91,-313.65"/>
</g>
<!-- ssl_acm_req -->
<g id="node18" class="node">
<title>ssl_acm_req</title>
<polygon fill="#fff9e6" stroke="black" points="1153.55,-188.8 1019,-188.8 1019,-111.4 1159.55,-111.4 1159.55,-182.8 1153.55,-188.8"/>
<polyline fill="none" stroke="black" points="1153.55,-188.8 1153.55,-182.8"/>
<polyline fill="none" stroke="black" points="1159.55,-182.8 1153.55,-182.8"/>
<text text-anchor="middle" x="1089.27" y="-164.5" font-family="Arial" font-size="18.00" fill="#9a7d0a">requires:</text>
<text text-anchor="middle" x="1089.27" y="-143.5" font-family="Arial" font-size="18.00" fill="#9a7d0a">certificate_arn</text>
<text text-anchor="middle" x="1089.27" y="-122.5" font-family="Arial" font-size="18.00" fill="#9a7d0a">Route53</text>
</g>
<!-- ssl_acm&#45;&gt;ssl_acm_req -->
<g id="edge17" class="edge">
<title>ssl_acm&#45;&gt;ssl_acm_req</title>
<path fill="none" stroke="black" stroke-dasharray="5,2" d="M1480.59,-255.01C1480.59,-225 1480.59,-183.93 1480.59,-183.93 1480.59,-183.93 1272.35,-183.93 1159.69,-183.93"/>
</g>
<!-- gpu_0 -->
<g id="node21" class="node">
<title>gpu_0</title>
<path fill="#f8f9f9" stroke="black" d="M1341.47,-179.05C1341.47,-179.05 1207.07,-179.05 1207.07,-179.05 1201.07,-179.05 1195.07,-173.05 1195.07,-167.05 1195.07,-167.05 1195.07,-133.15 1195.07,-133.15 1195.07,-127.15 1201.07,-121.15 1207.07,-121.15 1207.07,-121.15 1341.47,-121.15 1341.47,-121.15 1347.47,-121.15 1353.47,-127.15 1353.47,-133.15 1353.47,-133.15 1353.47,-167.05 1353.47,-167.05 1353.47,-173.05 1347.47,-179.05 1341.47,-179.05"/>
<text text-anchor="middle" x="1274.27" y="-153.8" font-family="Arial" font-size="19.00" fill="#2c3e50">g4dn.xlarge</text>
<text text-anchor="middle" x="1274.27" y="-132.05" font-family="Arial" font-size="19.00" fill="#2c3e50">(1 GPU)</text>
</g>
<!-- compute_gpu&#45;&gt;gpu_0 -->
<g id="edge20" class="edge">
<title>compute_gpu&#45;&gt;gpu_0</title>
<path fill="none" stroke="black" d="M1611.33,-266.89C1611.33,-258.12 1611.33,-249.61 1611.33,-249.61 1611.33,-249.61 1278.27,-249.61 1278.27,-249.61 1278.27,-249.61 1278.27,-187.93 1278.27,-187.93"/>
<polygon fill="black" stroke="black" points="1280.73,-187.93 1278.28,-180.93 1275.83,-187.93 1280.73,-187.93"/>
</g>
<!-- gpu_1 -->
<g id="node22" class="node">
<title>gpu_1</title>
<path fill="#f8f9f9" stroke="black" d="M1569.42,-179.05C1569.42,-179.05 1401.12,-179.05 1401.12,-179.05 1395.12,-179.05 1389.12,-173.05 1389.12,-167.05 1389.12,-167.05 1389.12,-133.15 1389.12,-133.15 1389.12,-127.15 1395.12,-121.15 1401.12,-121.15 1401.12,-121.15 1569.42,-121.15 1569.42,-121.15 1575.42,-121.15 1581.42,-127.15 1581.42,-133.15 1581.42,-133.15 1581.42,-167.05 1581.42,-167.05 1581.42,-173.05 1575.42,-179.05 1569.42,-179.05"/>
<text text-anchor="middle" x="1485.27" y="-153.8" font-family="Arial" font-size="19.00" fill="#2c3e50">p3.8xlarge</text>
<text text-anchor="middle" x="1485.27" y="-132.05" font-family="Arial" font-size="19.00" fill="#2c3e50">(4 GPUs, high&#45;perf)</text>
</g>
<!-- compute_gpu&#45;&gt;gpu_1 -->
<g id="edge21" class="edge">
<title>compute_gpu&#45;&gt;gpu_1</title>
<path fill="none" stroke="black" d="M1614.54,-266.58C1614.54,-234.48 1614.54,-173.61 1614.54,-173.61 1614.54,-173.61 1590.44,-173.61 1590.44,-173.61"/>
<polygon fill="black" stroke="black" points="1590.44,-171.16 1583.44,-173.61 1590.44,-176.06 1590.44,-171.16"/>
</g>
<!-- gpu_2 -->
<g id="node23" class="node">
<title>gpu_2</title>
<path fill="#f8f9f9" stroke="black" d="M1774.8,-168.18C1774.8,-168.18 1629.75,-168.18 1629.75,-168.18 1623.75,-168.18 1617.75,-162.18 1617.75,-156.18 1617.75,-156.18 1617.75,-144.03 1617.75,-144.03 1617.75,-138.03 1623.75,-132.03 1629.75,-132.03 1629.75,-132.03 1774.8,-132.03 1774.8,-132.03 1780.8,-132.03 1786.8,-138.03 1786.8,-144.03 1786.8,-144.03 1786.8,-156.18 1786.8,-156.18 1786.8,-162.18 1780.8,-168.18 1774.8,-168.18"/>
<text text-anchor="middle" x="1702.27" y="-142.93" font-family="Arial" font-size="19.00" fill="#2c3e50">other GPU types</text>
</g>
<!-- compute_gpu&#45;&gt;gpu_2 -->
<g id="edge22" class="edge">
<title>compute_gpu&#45;&gt;gpu_2</title>
<path fill="none" stroke="black" d="M1694.09,-266.71C1694.09,-266.71 1694.09,-176.81 1694.09,-176.81"/>
<polygon fill="black" stroke="black" points="1696.54,-176.81 1694.09,-169.81 1691.64,-176.81 1696.54,-176.81"/>
</g>
<!-- cpu_0 -->
<g id="node25" class="node">
<title>cpu_0</title>
<path fill="#f8f9f9" stroke="black" d="M1940.07,-168.18C1940.07,-168.18 1834.47,-168.18 1834.47,-168.18 1828.47,-168.18 1822.47,-162.18 1822.47,-156.18 1822.47,-156.18 1822.47,-144.03 1822.47,-144.03 1822.47,-138.03 1828.47,-132.03 1834.47,-132.03 1834.47,-132.03 1940.07,-132.03 1940.07,-132.03 1946.07,-132.03 1952.07,-138.03 1952.07,-144.03 1952.07,-144.03 1952.07,-156.18 1952.07,-156.18 1952.07,-162.18 1946.07,-168.18 1940.07,-168.18"/>
<text text-anchor="middle" x="1887.27" y="-142.93" font-family="Arial" font-size="19.00" fill="#2c3e50">t3.medium</text>
</g>
<!-- compute_cpu&#45;&gt;cpu_0 -->
<g id="edge24" class="edge">
<title>compute_cpu&#45;&gt;cpu_0</title>
<path fill="none" stroke="black" d="M1887.27,-266.71C1887.27,-266.71 1887.27,-176.81 1887.27,-176.81"/>
<polygon fill="black" stroke="black" points="1889.73,-176.81 1887.28,-169.81 1884.83,-176.81 1889.73,-176.81"/>
</g>
<!-- cpu_1 -->
<g id="node26" class="node">
<title>cpu_1</title>
<path fill="#f8f9f9" stroke="black" d="M2106.07,-168.18C2106.07,-168.18 2000.47,-168.18 2000.47,-168.18 1994.47,-168.18 1988.47,-162.18 1988.47,-156.18 1988.47,-156.18 1988.47,-144.03 1988.47,-144.03 1988.47,-138.03 1994.47,-132.03 2000.47,-132.03 2000.47,-132.03 2106.07,-132.03 2106.07,-132.03 2112.07,-132.03 2118.07,-138.03 2118.07,-144.03 2118.07,-144.03 2118.07,-156.18 2118.07,-156.18 2118.07,-162.18 2112.07,-168.18 2106.07,-168.18"/>
<text text-anchor="middle" x="2053.27" y="-142.93" font-family="Arial" font-size="19.00" fill="#2c3e50">t3.large</text>
</g>
<!-- compute_cpu&#45;&gt;cpu_1 -->
<g id="edge25" class="edge">
<title>compute_cpu&#45;&gt;cpu_1</title>
<path fill="none" stroke="black" d="M1957.27,-266.71C1957.27,-229.28 1957.27,-150.1 1957.27,-150.1 1957.27,-150.1 1979.66,-150.1 1979.66,-150.1"/>
<polygon fill="black" stroke="black" points="1979.66,-152.55 1986.66,-150.1 1979.66,-147.65 1979.66,-152.55"/>
</g>
<!-- cpu_2 -->
<g id="node27" class="node">
<title>cpu_2</title>
<path fill="#f8f9f9" stroke="black" d="M2310.05,-168.18C2310.05,-168.18 2166.5,-168.18 2166.5,-168.18 2160.5,-168.18 2154.5,-162.18 2154.5,-156.18 2154.5,-156.18 2154.5,-144.03 2154.5,-144.03 2154.5,-138.03 2160.5,-132.03 2166.5,-132.03 2166.5,-132.03 2310.05,-132.03 2310.05,-132.03 2316.05,-132.03 2322.05,-138.03 2322.05,-144.03 2322.05,-144.03 2322.05,-156.18 2322.05,-156.18 2322.05,-162.18 2316.05,-168.18 2310.05,-168.18"/>
<text text-anchor="middle" x="2238.27" y="-142.93" font-family="Arial" font-size="19.00" fill="#2c3e50">other CPU types</text>
</g>
<!-- compute_cpu&#45;&gt;cpu_2 -->
<g id="edge26" class="edge">
<title>compute_cpu&#45;&gt;cpu_2</title>
<path fill="none" stroke="black" d="M1962.47,-266.86C1962.47,-246.26 1962.47,-216.3 1962.47,-216.3 1962.47,-216.3 2173.71,-216.3 2173.71,-216.3 2173.71,-216.3 2173.71,-177.05 2173.71,-177.05"/>
<polygon fill="black" stroke="black" points="2176.16,-177.05 2173.71,-170.05 2171.26,-177.05 2176.16,-177.05"/>
</g>
<!-- gpu_auto -->
<g id="node24" class="node">
<title>gpu_auto</title>
<polygon fill="#fff9e6" stroke="black" points="1352.42,-56.4 1190.12,-56.4 1190.12,0 1358.42,0 1358.42,-50.4 1352.42,-56.4"/>
<polyline fill="none" stroke="black" points="1352.42,-56.4 1352.42,-50.4"/>
<polyline fill="none" stroke="black" points="1358.42,-50.4 1352.42,-50.4"/>
<text text-anchor="middle" x="1274.27" y="-32.1" font-family="Arial" font-size="18.00" fill="#9a7d0a">gpu_support: true</text>
<text text-anchor="middle" x="1274.27" y="-11.1" font-family="Arial" font-size="18.00" fill="#9a7d0a">(auto&#45;detected)</text>
</g>
<!-- gpu_0&#45;&gt;gpu_auto -->
<g id="edge23" class="edge">
<title>gpu_0&#45;&gt;gpu_auto</title>
<path fill="none" stroke="black" stroke-dasharray="5,2" d="M1274.27,-120.9C1274.27,-101.46 1274.27,-76.04 1274.27,-56.74"/>
</g>
<!-- cpu_auto -->
<g id="node28" class="node">
<title>cpu_auto</title>
<polygon fill="#fff9e6" stroke="black" points="1968.8,-56.4 1799.75,-56.4 1799.75,0 1974.8,0 1974.8,-50.4 1968.8,-56.4"/>
<polyline fill="none" stroke="black" points="1968.8,-56.4 1968.8,-50.4"/>
<polyline fill="none" stroke="black" points="1974.8,-50.4 1968.8,-50.4"/>
<text text-anchor="middle" x="1887.27" y="-32.1" font-family="Arial" font-size="18.00" fill="#9a7d0a">gpu_support: false</text>
<text text-anchor="middle" x="1887.27" y="-11.1" font-family="Arial" font-size="18.00" fill="#9a7d0a">(auto&#45;detected)</text>
</g>
<!-- cpu_0&#45;&gt;cpu_auto -->
<g id="edge27" class="edge">
<title>cpu_0&#45;&gt;cpu_auto</title>
<path fill="none" stroke="black" stroke-dasharray="5,2" d="M1887.27,-131.59C1887.27,-111.74 1887.27,-79.97 1887.27,-56.88"/>
</g>
</g>
</svg>
