<?xml version="1.0" encoding="UTF-8" standalone="no"?>
<!DOCTYPE svg PUBLIC "-//W3C//DTD SVG 1.1//EN"
 "http://www.w3.org/Graphics/SVG/1.1/DTD/svg11.dtd">
<!-- Generated by graphviz version 12.1.2 (20240928.0832)
 -->
<!-- Pages: 1 -->
<svg width="11248pt" height="1034pt"
 viewBox="0.00 0.00 2699.50 248.20" xmlns="http://www.w3.org/2000/svg" xmlns:xlink="http://www.w3.org/1999/xlink">
<g id="graph0" class="graph" transform="scale(4.16667 4.16667) rotate(0) translate(4 244.2)">
<polygon fill="white" stroke="none" points="-4,4 -4,-244.2 2695.5,-244.2 2695.5,4 -4,4"/>
<!-- root -->
<g id="node1" class="node">
<title>root</title>
<path fill="#5d6d7e" stroke="black" stroke-width="2.5" d="M1524.75,-240.2C1524.75,-240.2 1277.25,-240.2 1277.25,-240.2 1271.25,-240.2 1265.25,-234.2 1265.25,-228.2 1265.25,-228.2 1265.25,-203.6 1265.25,-203.6 1265.25,-197.6 1271.25,-191.6 1277.25,-191.6 1277.25,-191.6 1524.75,-191.6 1524.75,-191.6 1530.75,-191.6 1536.75,-197.6 1536.75,-203.6 1536.75,-203.6 1536.75,-228.2 1536.75,-228.2 1536.75,-234.2 1530.75,-240.2 1524.75,-240.2"/>
<text text-anchor="middle" x="1401" y="-206.6" font-family="Arial" font-size="24.00" fill="white">LabLink Configuration</text>
</g>
<!-- env -->
<g id="node2" class="node">
<title>env</title>
<path fill="#7fb3d5" stroke="black" stroke-width="2.5" d="M282,-105.6C282,-105.6 12,-105.6 12,-105.6 6,-105.6 0,-99.6 0,-93.6 0,-93.6 0,-33 0,-33 0,-27 6,-21 12,-21 12,-21 282,-21 282,-21 288,-21 294,-27 294,-33 294,-33 294,-93.6 294,-93.6 294,-99.6 288,-105.6 282,-105.6"/>
<text text-anchor="middle" x="147" y="-77.7" font-family="Arial" font-size="18.00" fill="white">Deployment Environment</text>
<text text-anchor="middle" x="147" y="-35.7" font-family="Arial" font-size="18.00" fill="white">Options: dev | test | prod | ci&#45;test</text>
</g>
<!-- root&#45;&gt;env -->
<g id="edge1" class="edge">
<title>root&#45;&gt;env</title>
<path fill="none" stroke="#5d6d7e" stroke-width="2.5" d="M1264.41,-228.05C939.4,-228.05 147,-228.05 147,-228.05 147,-228.05 147,-117.37 147,-117.37"/>
<polygon fill="#5d6d7e" stroke="#5d6d7e" stroke-width="2.5" points="149.45,-117.37 147,-110.37 144.55,-117.37 149.45,-117.37"/>
</g>
<!-- ssl -->
<g id="node3" class="node">
<title>ssl</title>
<path fill="#c39bd3" stroke="black" stroke-width="2.5" d="M720.62,-116.1C720.62,-116.1 349.38,-116.1 349.38,-116.1 343.38,-116.1 337.38,-110.1 337.38,-104.1 337.38,-104.1 337.38,-22.5 337.38,-22.5 337.38,-16.5 343.38,-10.5 349.38,-10.5 349.38,-10.5 720.62,-10.5 720.62,-10.5 726.62,-10.5 732.62,-16.5 732.62,-22.5 732.62,-22.5 732.62,-104.1 732.62,-104.1 732.62,-110.1 726.62,-116.1 720.62,-116.1"/>
<text text-anchor="middle" x="535" y="-88.2" font-family="Arial" font-size="18.00" fill="white">SSL/Network Strategy</text>
<text text-anchor="middle" x="535" y="-46.2" font-family="Arial" font-size="18.00" fill="white">Options: none | letsencrypt | cloudflare | acm*</text>
<text text-anchor="middle" x="535" y="-25.2" font-family="Arial" font-size="18.00" fill="white">*requires ACM cert + Route53</text>
</g>
<!-- root&#45;&gt;ssl -->
<g id="edge2" class="edge">
<title>root&#45;&gt;ssl</title>
<path fill="none" stroke="#5d6d7e" stroke-width="2.5" d="M1264.26,-215.9C1020.22,-215.9 535,-215.9 535,-215.9 535,-215.9 535,-127.46 535,-127.46"/>
<polygon fill="#5d6d7e" stroke="#5d6d7e" stroke-width="2.5" points="537.45,-127.46 535,-120.46 532.55,-127.46 537.45,-127.46"/>
</g>
<!-- compute -->
<g id="node4" class="node">
<title>compute</title>
<path fill="#ec7063" stroke="black" stroke-width="2.5" d="M1070,-116.1C1070,-116.1 788,-116.1 788,-116.1 782,-116.1 776,-110.1 776,-104.1 776,-104.1 776,-22.5 776,-22.5 776,-16.5 782,-10.5 788,-10.5 788,-10.5 1070,-10.5 1070,-10.5 1076,-10.5 1082,-16.5 1082,-22.5 1082,-22.5 1082,-104.1 1082,-104.1 1082,-110.1 1076,-116.1 1070,-116.1"/>
<text text-anchor="middle" x="929" y="-88.2" font-family="Arial" font-size="18.00" fill="white">Compute Configuration</text>
<text text-anchor="middle" x="929" y="-46.2" font-family="Arial" font-size="18.00" fill="white">GPU: g4dn.xlarge | p3.8xlarge | ...</text>
<text text-anchor="middle" x="929" y="-25.2" font-family="Arial" font-size="18.00" fill="white">CPU: t3.medium | t3.large | ...</text>
</g>
<!-- root&#45;&gt;compute -->
<g id="edge3" class="edge">
<title>root&#45;&gt;compute</title>
<path fill="none" stroke="#5d6d7e" stroke-width="2.5" d="M1264.48,-203.75C1125.08,-203.75 929,-203.75 929,-203.75 929,-203.75 929,-127.58 929,-127.58"/>
<polygon fill="#5d6d7e" stroke="#5d6d7e" stroke-width="2.5" points="931.45,-127.58 929,-120.58 926.55,-127.58 931.45,-127.58"/>
</g>
<!-- app -->
<g id="node5" class="node">
<title>app</title>
<path fill="#f8c471" stroke="black" stroke-width="2" d="M1364.62,-126.6C1364.62,-126.6 1137.38,-126.6 1137.38,-126.6 1131.38,-126.6 1125.38,-120.6 1125.38,-114.6 1125.38,-114.6 1125.38,-12 1125.38,-12 1125.38,-6 1131.38,0 1137.38,0 1137.38,0 1364.62,0 1364.62,0 1370.62,0 1376.62,-6 1376.62,-12 1376.62,-12 1376.62,-114.6 1376.62,-114.6 1376.62,-120.6 1370.62,-126.6 1364.62,-126.6"/>
<text text-anchor="middle" x="1251" y="-98.7" font-family="Arial" font-size="18.00" fill="white">Application Settings</text>
<text text-anchor="middle" x="1251" y="-56.7" font-family="Arial" font-size="18.00" fill="white">Software: SLEAP | Custom</text>
<text text-anchor="middle" x="1251" y="-35.7" font-family="Arial" font-size="18.00" fill="white">Files: .slp | .h5 | custom</text>
<text text-anchor="middle" x="1251" y="-14.7" font-family="Arial" font-size="18.00" fill="white">Repository: Git URL</text>
</g>
<!-- root&#45;&gt;app -->
<g id="edge4" class="edge">
<title>root&#45;&gt;app</title>
<path fill="none" stroke="#5d6d7e" stroke-width="2" d="M1320.94,-190.7C1320.94,-190.7 1320.94,-137.42 1320.94,-137.42"/>
<polygon fill="#5d6d7e" stroke="#5d6d7e" stroke-width="2" points="1323.39,-137.42 1320.94,-130.42 1318.49,-137.42 1323.39,-137.42"/>
</g>
<!-- scale -->
<g id="node6" class="node">
<title>scale</title>
<path fill="#76d7c4" stroke="black" stroke-width="2" d="M1669.88,-116.1C1669.88,-116.1 1432.12,-116.1 1432.12,-116.1 1426.12,-116.1 1420.12,-110.1 1420.12,-104.1 1420.12,-104.1 1420.12,-22.5 1420.12,-22.5 1420.12,-16.5 1426.12,-10.5 1432.12,-10.5 1432.12,-10.5 1669.88,-10.5 1669.88,-10.5 1675.88,-10.5 1681.88,-16.5 1681.88,-22.5 1681.88,-22.5 1681.88,-104.1 1681.88,-104.1 1681.88,-110.1 1675.88,-116.1 1669.88,-116.1"/>
<text text-anchor="middle" x="1551" y="-88.2" font-family="Arial" font-size="18.00" fill="white">Scaling &amp; Reliability</text>
<text text-anchor="middle" x="1551" y="-46.2" font-family="Arial" font-size="18.00" fill="white">Instance count: 1&#45;N VMs</text>
<text text-anchor="middle" x="1551" y="-25.2" font-family="Arial" font-size="18.00" fill="white">Error handling: continue | fail</text>
</g>
<!-- root&#45;&gt;scale -->
<g id="edge5" class="edge">
<title>root&#45;&gt;scale</title>
<path fill="none" stroke="#5d6d7e" stroke-width="2" d="M1478.44,-190.7C1478.44,-190.7 1478.44,-127.06 1478.44,-127.06"/>
<polygon fill="#5d6d7e" stroke="#5d6d7e" stroke-width="2" points="1480.89,-127.06 1478.44,-120.06 1475.99,-127.06 1480.89,-127.06"/>
</g>
<!-- infra -->
<g id="node7" class="node">
<title>infra</title>
<path fill="#d5d8dc" stroke="black" stroke-width="1.5" d="M1965.38,-116.1C1965.38,-116.1 1736.62,-116.1 1736.62,-116.1 1730.62,-116.1 1724.62,-110.1 1724.62,-104.1 1724.62,-104.1 1724.62,-22.5 1724.62,-22.5 1724.62,-16.5 1730.62,-10.5 1736.62,-10.5 1736.62,-10.5 1965.38,-10.5 1965.38,-10.5 1971.38,-10.5 1977.38,-16.5 1977.38,-22.5 1977.38,-22.5 1977.38,-104.1 1977.38,-104.1 1977.38,-110.1 1971.38,-116.1 1965.38,-116.1"/>
<text text-anchor="middle" x="1851" y="-88.2" font-family="Arial" font-size="18.00" fill="#2c3e50">AWS Infrastructure</text>
<text text-anchor="middle" x="1851" y="-46.2" font-family="Arial" font-size="18.00" fill="#2c3e50">Region, AMI, Docker image</text>
<text text-anchor="middle" x="1851" y="-25.2" font-family="Arial" font-size="18.00" fill="#2c3e50">EIP strategy</text>
</g>
<!-- root&#45;&gt;infra -->
<g id="edge6" class="edge">
<title>root&#45;&gt;infra</title>
<path fill="none" stroke="#95a5a6" stroke-width="1.5" d="M1537.54,-203.75C1669.96,-203.75 1851,-203.75 1851,-203.75 1851,-203.75 1851,-125.67 1851,-125.67"/>
<polygon fill="#95a5a6" stroke="#95a5a6" stroke-width="1.5" points="1853.45,-125.67 1851,-118.67 1848.55,-125.67 1853.45,-125.67"/>
</g>
<!-- auth -->
<g id="node8" class="node">
<title>auth</title>
<path fill="#d5d8dc" stroke="black" stroke-width="1.5" d="M2309.75,-116.1C2309.75,-116.1 2032.25,-116.1 2032.25,-116.1 2026.25,-116.1 2020.25,-110.1 2020.25,-104.1 2020.25,-104.1 2020.25,-22.5 2020.25,-22.5 2020.25,-16.5 2026.25,-10.5 2032.25,-10.5 2032.25,-10.5 2309.75,-10.5 2309.75,-10.5 2315.75,-10.5 2321.75,-16.5 2321.75,-22.5 2321.75,-22.5 2321.75,-104.1 2321.75,-104.1 2321.75,-110.1 2315.75,-116.1 2309.75,-116.1"/>
<text text-anchor="middle" x="2171" y="-88.2" font-family="Arial" font-size="18.00" fill="#2c3e50">Authentication &amp; Security</text>
<text text-anchor="middle" x="2171" y="-46.2" font-family="Arial" font-size="18.00" fill="#2c3e50">Admin credentials, DB password</text>
<text text-anchor="middle" x="2171" y="-25.2" font-family="Arial" font-size="18.00" fill="#2c3e50">AWS credentials, Security groups</text>
</g>
<!-- root&#45;&gt;auth -->
<g id="edge7" class="edge">
<title>root&#45;&gt;auth</title>
<path fill="none" stroke="#95a5a6" stroke-width="1.5" d="M1537.33,-215.9C1758.49,-215.9 2171,-215.9 2171,-215.9 2171,-215.9 2171,-125.51 2171,-125.51"/>
<polygon fill="#95a5a6" stroke="#95a5a6" stroke-width="1.5" points="2173.45,-125.51 2171,-118.51 2168.55,-125.51 2173.45,-125.51"/>
</g>
<!-- monitor -->
<g id="node9" class="node">
<title>monitor</title>
<path fill="#d5d8dc" stroke="black" stroke-width="1.5" d="M2679.5,-116.1C2679.5,-116.1 2376.5,-116.1 2376.5,-116.1 2370.5,-116.1 2364.5,-110.1 2364.5,-104.1 2364.5,-104.1 2364.5,-22.5 2364.5,-22.5 2364.5,-16.5 2370.5,-10.5 2376.5,-10.5 2376.5,-10.5 2679.5,-10.5 2679.5,-10.5 2685.5,-10.5 2691.5,-16.5 2691.5,-22.5 2691.5,-22.5 2691.5,-104.1 2691.5,-104.1 2691.5,-110.1 2685.5,-116.1 2679.5,-116.1"/>
<text text-anchor="middle" x="2528" y="-88.2" font-family="Arial" font-size="18.00" fill="#2c3e50">Monitoring &amp; Logging</text>
<text text-anchor="middle" x="2528" y="-46.2" font-family="Arial" font-size="18.00" fill="#2c3e50">CloudWatch logs, Lambda processor</text>
<text text-anchor="middle" x="2528" y="-25.2" font-family="Arial" font-size="18.00" fill="#2c3e50">Polling: GPU (20s), usage (20s)</text>
</g>
<!-- root&#45;&gt;monitor -->
<g id="edge8" class="edge">
<title>root&#45;&gt;monitor</title>
<path fill="none" stroke="#95a5a6" stroke-width="1.5" d="M1537.5,-228.05C1837.55,-228.05 2528,-228.05 2528,-228.05 2528,-228.05 2528,-125.61 2528,-125.61"/>
<polygon fill="#95a5a6" stroke="#95a5a6" stroke-width="1.5" points="2530.45,-125.61 2528,-118.61 2525.55,-125.61 2530.45,-125.61"/>
</g>
</g>
</svg>
